<?xml version="1.0" encoding="UTF-8"?>
<svg version="1.1" viewBox="0 0 733.21 625.04" xml:space="preserve" xmlns="http://www.w3.org/2000/svg"><g transform="matrix(1.3333 0 0 -1.3333 0 625.04)"><g transform="scale(.1)"><path d="m4699.8 461.43c-1070.4-618-2811.3-614.8-3888.4 7-317.5 183.3-541.89 399.9-672.89 630.1-9.301 16.1-18 32.2-26.199 48.41-36.102 70.89-63.504 142.88-82.2 215.39-0.8008 3.1-1.6016 6.2-2.3047 9.3v0.1c-1.8984 7.6-3.6953 15.1-5.2969 22.8v0.1c-31 139.3-30 280.3 3.1016 419.3 78.196 329.4 335.9 646.8 773.6 899.5 390.3 225.3 869.9 368.1 1373.9 428.4 147.2 17.7 296.5 28.2 446.31 31.7h0.09c287.1 6.8 575.8-12.3 855-57.1 24.91-4.1 49.7-8.3 74.5-12.7 416.3-74.3 808.6-206.79 1138.7-397.3 1077.1-621.9 1082.5-1627 12.1-2245" fill="#67a333"/><path d="m1150.1 1211.6-361.94 209.02 564.66 346.59 154.2 94.6 234.45 143.87 92.42 56.74 1166.6 715.94 128.1 78.58 2.43 1.5 352.63-203.64 65.74-37.94 67.65-39.04 1107.8-639.62-2416.6-1395.2-1158.1 668.59m2520.4 1391.5-100.39 58-66.07 38.1-325.01 187.7-20.48 11.75-28.04 16.2-0.25 0.17-10.33-6.39-78.06-47.84-1271.6-780.4-362.11-222.27-324.77-199.28-390.33-239.57 1615.1-932.41 2513.9 1451.3-1151.6 664.9" fill="#d2eaad"/><path d="m3566.2 3141.9c-14.2-36.51-28.4-39.31-42.6 3.19l-29.6-17.3-19.5-11.4-93.2-54.6-158.99-93.1-87.61-51.5-4.2-2.4-10.6-6.2-76.1-44.6-1344.3-787.9-211-123.5-1214.5-711.8-161.7-93.89c8.199-16.21 16.898-32.31 26.199-48.41l15.297 15.4 0.707 0.5 171.5 100.5 757.4 443.9 314.31 184.1 397.79 233.2 1207.2 707.5 126.3 73.9 50 29.3 7.69 4.6 281.8 165.1 73 42.8 7.5 4.4 41.8 24.5c-8.09 3.2-16.3 7.8-24.6 13.71" fill="#d2eaad"/><path d="m1128.7 1148.2h-668.6l-134.1 66.7 710.61 416.48v-1.33l-343.52-210.84 343.52-198.32v-19.31l92.09-53.38m-92.09 128.86-248.49 143.5 248.49 152.52v-296.02m232.49 209.71v229.02l83.68 51.36 154.2 94.6 234.45 143.87 92.42 56.74 316.53 194.25c26.88-2.06 51.7-3.79 66.49-4.36 2.3-0.1 4.67-0.14 7.11-0.14 23.06 0 51.77 4.02 77.37 8.04s48.09 8.05 58.72 8.05c0.1 0 0.2-0.01 0.29-0.01 22.02-0.16 31.46-6.64 98.1-17.16 19.83-3.14 36.16-4.1 50.63-4.1 11.51 0 21.83 0.61 31.78 1.22 9.69 0.59 19.03 1.18 28.77 1.21l-622.04-364.76-72.39-42.4-517.71-303.6-78.8-46.2-9.6-5.63m1165.7 917.77c-11.36 0-25.37 0.65-40.87 1.55l606.52 372.21 128.1 78.58 2.43 1.5 27.71-16.01c-4.43-6.11-8.85-12.21-13.11-18.13-24.55-5.34-30.91-41.66-37.52-50.72-6.93-9.5-23.43-22.1-17.97-32.03 0 0 5.39-18.29 2.67-25.3-2.74-7.01-11.51-39.93-11.51-39.93l-12.75-27.54h0.01c-0.01 0-0.01-0.01-0.01-0.02-23.46-52.74-34.28-65.68-34.28-65.68l-25.65-27.33-7.28-8.45-37.43-13.31s-43.88-5.4-58.99-10.32c-15.1-4.91-33.73-7.63-33.73-7.63s6.07-7.58 13.89-16.54c-0.78 0.01-1.57 0.01-2.37 0.01-22.17 0-51.24-2.08-55.94-3.61-7.53-2.45-26.68-11.08-35.06-13.81-8.37-2.72-26.58-5.25-50.49-20.36-23.9-15.11-96.01-20-119.3-32.5-3.14-1.68-6.64-4.51-10.29-8.32-19.75-3.25-48.43-8.25-52.64-11.28-5.93-4.28-83.97-0.85-104.93-3.98-4.9-0.75-11.43-1.05-19.21-1.05m1059.4 127.75c-2.62 1.56-4.51 2.91-4.51 2.91l-15.73 0.08-0.33 0.37c-4.23 4.83-12.96 14.61-15.34 15.52l-0.88 0.25c-2.51 0.72-8.92 2.17-14.96 3.48l-0.5 0.1c-6.76 1.48-13.06 2.76-13.06 2.76s-8.3 11.74-9.95 16.81c-1.63 5.02-5.03 18.95-14.37 28.74-1.14 1.21-2.28 2.41-3.42 3.6 8.36 12.75 26.85 27.14 50.43 54.4 1.1 1.26 2.11 2.51 3.04 3.74 1.73 0.81 3.63 1.89 5.64 3.19l23.38-13.5 3.41-1.97v-35.9l95.56-55.4-57.69-27.37-25.7-1.5-5.02-0.31m-193.17 164.45c-4.14 2.11-9.09 4.63-9.09 4.63s-8.28 7.64-16.82 16.18c-0.03 0.03-0.06 0.07-0.09 0.1-4.33 4.39-18.15 21.33-18.15 21.33l-0.09 0.16c-0.03 0.07-0.07 0.14-0.12 0.21l-10.13 18.8c5.98 8.14 11.78 15.95 15.84 21.13 0.54 0.69 1.1 1.45 1.67 2.27l57.88-33.42c-2.35-9.01-5.43-24.68-5.43-24.68s-4.71-12.42-9.57-20.69c-1.4-2.38-3.54-4.38-5.9-6.02m23.99 105.79-38.39 22.16c2.28 4.86 4.45 9.55 6.44 13.78l35.54-17.69c-0.11-0.25-0.21-0.52-0.31-0.79-3.14-8.95-3.55-14.1-3.55-14.1s0.14-1.35 0.27-3.36m-137.69 79.51-8.27 4.78 7.66 4.58 5.33-2.66c-1.5-2.15-3.08-4.39-4.72-6.7" fill="#5a8c2e"/><path d="m1036.6 1220.9-343.52 198.32 343.52 210.84v-56.97l-248.49-152.52 248.49-143.5v-56.17m232.49 494.9v51.78l128.61 75.33 397.79 233.2 313.62 183.8c13.6-1.11 27.69-2.24 41.26-3.29l-316.53-194.25-92.42-56.74-234.45-143.87-154.2-94.6-83.68-51.36m1124.8 690.3c-10.16 0.58-20.95 1.28-32.04 1.96l640.81 375.55 126.3 73.9 50 29.3 0.03 0.02 8.27-4.78c-8.5-11.97-18.59-25.85-28.61-39.67l-27.71 16.01-2.43-1.5-128.1-78.58-606.52-372.21m1093.1 246.68-3.41 1.97-23.38 13.5c8.16 5.27 18.22 14.13 26.79 22.65v-38.12m-165.12 95.36-57.88 33.42c6.73 9.66 15.18 27.32 22.58 43.14l38.39-22.16c0.12-1.99 0.24-4.63 0.19-7.26l-0.43-0.26 0.42-0.24c-0.07-2.58-0.3-5.11-0.83-6.97-1.67-5.76-2.77-17.81-2.77-17.81s2.48-4.69 4.14-4.69c0.17 0 0.34 0.06 0.49 0.17-0.79-3.27-1.54-7.09-2.01-11.24-0.25-0.13-0.42-0.27-0.5-0.43-0.46-0.92-1.1-3-1.79-5.67" fill="#b1ca87"/><path d="m30.113 1362.3-2.1992 1.1c0 2.7-0.1055 5.4-0.1055 8.2 0.7031-3.1 1.5039-6.2 2.3047-9.3m2143 1779.5 27.7 17.2 15.8 9.7 15.1 9.4 85.61 52.9 41.39 25.6 41.8 25.9 123.3-61.4 73-36.3 22.61-11.3c-149.81-3.5-299.11-14-446.31-31.7" fill="#d5dabc"/><path d="m274.01 1240.8-243.9 121.5c-0.8008 3.1-1.6016 6.2-2.3047 9.3v0.1c-0.1953 14.4-0.2969 30.5-0.4961 48.5-0.3945 5.57-0.7852 7.81-1.168 7.81-1.2695 0-2.4804-24.43-3.6328-33.41-15.016 67.47-22.523 135.35-22.512 203.2 0.011719 72.22 8.5469 144.43 25.613 216.1l1011 625.15v-751.29l-762.61-446.96m995.1 583.21v758.8l65.31 40.49 499.69 308.9 86 53.1 252.5 156.21 0.5 0.29c147.2 17.7 296.5 28.2 446.31 31.7h0.09l47.01-23.4 317.24-157.8 0.37-0.22-0.01 0.04 21.15-10.53-1.49-0.89 36.65-21.19 4.21 2.5 31.68-15.75 3.45-9.49 44.28-25.64-3.08-1.91-1.06-0.62-76.1-44.6-790.87-463.53c-40.49-8.93-86.97-23.16-134.82-38.3-75.75-24.02-88.54-82.77-90.28-93.63l-328.33-192.44-211-123.5-219.4-128.59" fill="#5a8c2e"/><path d="m3121 2909.2 3.08 1.91 0.09-0.06-3.17-1.85" fill="#b1ca87"/><path d="m326.01 1214.9-52 25.9 762.61 446.96v-56.38l-710.61-416.48m943.1 552.67v56.44l219.4 128.59 211 123.5 328.33 192.44c-0.18-1.13-0.24-1.74-0.24-1.74s36.91-3.27 79.28-6.71c0.74-0.06 1.5-0.12 2.25-0.19l-313.62-183.8-397.79-233.2-128.61-75.33m983.83 632.9 866.97 508.13 1.06 0.62 3.17 1.85 23.3-13.49 12.21 7.28 2.76-1.36 24.3-12.1-7.66-4.58-0.03-0.02-50-29.3-126.3-73.9-640.81-375.55c-9.85 0.61-19.94 1.21-30.03 1.72-2.53 0.12-5.14 0.19-7.82 0.19-20.2 0-44.35-3.59-71.12-9.49" fill="#b1ca87"/><path d="m2814.4 4592.5v-1537l-81.83 47.26v1537.4l81.83-47.66" fill="#aec6c7"/><path d="m2814.4 4592.5v-1537l81.79 47.26v1537.4l-81.79-47.66" fill="#b5d0d0"/><path d="m3443.9 2991.9-24.77 67.88 62.04 37.01 24.72-67.93-61.99-36.96m19.18 262.93-24.77 67.93 62.09 37.01 24.72-67.92-62.04-37.02m24.4 140.3-62.04-37.01-24.71 67.93 62.03 37.02 24.72-67.94m-42.8 225.92-24.77 67.94 62.09 37.01 24.71-67.93-62.03-37.02m19.18 262.99-24.72 67.88 62.04 37.07 24.71-67.93-62.03-37.02m24.45 140.31-62.09-37.02-24.72 67.94 62.1 37.01 24.71-67.93m-42.86 225.92-24.77 67.93 62.09 37.01 24.77-67.93-62.09-37.01m24.45 140.36-62.09-37.02-24.7 67.88 62.08 37.07 24.71-67.93m-94.4-56.35-62.09-37.02-24.71 67.93 62.04 37.02 24.76-67.93m-94.44-56.3-62.05-37.06-24.7 67.92 62.03 37.07 24.72-67.93m-37.59 103.29-62.09-37.02-24.71 67.89 62.09 37.06 24.71-67.93m-94.41-56.3-62.08-37.07-24.71 67.94 62.04 37.01 24.75-67.88m-37.62 103.29-62.09-37.01-24.72 67.88 62.09 37.07 24.72-67.94m-94.41-56.35-62.09-37.01-24.71 67.93 62.1 37.01 24.7-67.93m-81.52-91.71 24.71-67.88-62.09-37.07-24.72 67.93 62.1 37.02m-19.24-262.93 24.77-67.93-62.09-37.02-24.72 67.88 62.04 37.07m-24.45-140.36 62.09 37.01 24.7-67.87-62.08-37.02-24.71 67.88m42.86-225.92 24.75-67.88-62.08-37.07-24.71 67.93 62.04 37.02m-19.18-262.94 24.72-67.93-62.05-37.01-24.76 67.93 62.09 37.01m-24.45-140.35 62.04 37.01 24.7-67.88-62.03-37.01-24.71 67.88m37.57-103.3 62.1 37.02 24.71-67.93-62.04-37.01-24.77 67.92m94.46 56.3 62.04 37.07 24.72-67.93-62.05-37.02-24.71 67.88m37.59-103.3 62.09 37.03 24.7-67.88-62.04-37.02-24.75 67.87m37.63-103.29 62.04 37.02 24.71-67.92-62.04-37.03-24.71 67.93m94.4 56.36 62.04 36.96 24.71-67.88-62.04-37.02-24.71 67.94m37.63-103.35 62.04 37.01 24.71-67.92-62.03-36.97-24.72 67.88m213.25 253.02 24.72-67.94-62.04-37.01-24.71 67.93 62.03 37.02m-37.62 103.28 24.75-67.93-62.09-37.01-24.7 67.93 62.04 37.01m-12.88 35.41-62.03-37.01-24.72 67.88 62.04 37.02 24.71-67.89m32.11 227.53 24.71-67.88-62.04-37.07-24.76 67.93 62.09 37.02m-12.87 35.42-62.09-37.02-24.71 67.93 62.03 37.01 24.77-67.92m32.05 227.57 24.76-67.94-62.09-37.01-24.71 67.93 62.04 37.02m-37.58 103.28 24.71-67.93-62.05-37.01-24.75 67.93 62.09 37.01m-12.88 35.37-62.09-37.01-24.71 67.93 62.03 37.06 24.77-67.98m32.05 227.57 24.76-67.93-62.09-37.01-24.71 67.93 62.04 37.01m-99.67 66.28 62.09 37.07 24.71-67.93-62.04-37.02-24.76 67.88m5.27-122.58 24.71-67.93-62.04-37.01-24.76 67.93 62.09 37.01m-99.67 66.28 62.09 37.02 24.71-67.93-62.09-37.02-24.71 67.93m5.27-122.63 24.72-67.93-62.09-37.01-24.72 67.93 62.09 37.01m-37.64 103.3 24.77-67.88-62.09-37.02-24.72 67.88 62.04 37.02m-99.67 66.27 62.09 37.07 24.71-67.93-62.09-37.02-24.71 67.88m5.28-122.57 24.7-67.93-62.03-37.02-24.76 67.93 62.09 37.02m-37.59 103.28 24.72-67.87-62.09-37.07-24.72 67.93 62.09 37.01m-99.73 66.29 62.09 37.06 24.72-67.92-62.09-37.03-24.72 67.89m-32.05-227.52-24.76 67.87 62.09 37.07 24.7-67.93-62.03-37.01m37.58-103.36-24.71 67.94 62.09 37.02 24.72-67.89-62.1-37.07m12.88-35.35 62.08 37.01 24.72-67.93-62.03-37.01-24.77 67.93m-32.06-227.58-24.71 67.93 62.05 37.02 24.7-67.93-62.04-37.02m12.88-35.36 62.09 37.02 24.71-67.93-62.09-37.02-24.71 67.93m-32.06-227.57-24.75 67.88 62.08 37.06 24.71-67.92-62.04-37.02m37.59-103.29-24.71 67.88 62.04 37.01 24.7-67.88-62.03-37.01m99.68-66.33-62.04-37.01-24.76 67.93 62.08 37.01 24.72-67.93m-5.28 122.62-24.71 67.93 62.04 37.03 24.76-67.94-62.09-37.02m37.64-103.29-24.72 67.94 62.04 37.01 24.71-67.93-62.03-37.02m37.58-103.29-24.71 67.88 62.04 37.02 24.76-67.93-62.09-36.97m99.68-66.33-62.04-37.01-24.71 67.93 62.03 37.01 24.72-67.93m88.91 387.22 24.72-67.93-62.09-37.02-24.72 67.93 62.09 37.02m-12.92 35.36-62.04-37.02-24.71 67.93 62.04 37.02 24.71-67.93m32.1 227.57 24.72-67.93-62.04-37.01-24.72 67.93 62.04 37.01m-37.58 103.3 24.71-67.88-62.09-37.01-24.71 67.87 62.09 37.02m-99.67 66.32 62.04 37.02 24.7-67.93-62.03-37.02-24.71 67.93m5.22-122.62 24.71-67.93-62.03-37.02-24.72 67.93 62.04 37.02m-37.59 103.29 24.72-67.93-62.04-37.01-24.77 67.92 62.09 37.02m-99.67 66.28 62.04 37.06 24.76-67.93-62.09-37.01-24.71 67.88m-32.11-227.52-24.7 67.88 62.09 37.06 24.71-67.93-62.1-37.01m75.23-206.64-24.72 67.93 62.04 37.01 24.77-67.93-62.09-37.01m94.45 56.35-24.76 67.88 62.09 37.07 24.71-67.93-62.04-37.02m18.09-158.04 24.76-67.88-62.08-37.07-24.71 67.94 62.03 37.01m-74.9-1.6-24.72 67.87 62.04 37.07 24.71-67.93-62.03-37.01m-94.72 151.88 24.72-67.88-62.04-37.01-24.71 67.88 62.03 37.01m-5.22 122.63 62.04 37.02 24.71-67.88-62.04-37.07-24.71 67.93m175.15-481.15-24.76 67.93 62.09 37.02 24.71-67.93-62.04-37.02m112.55-101.69 24.71-67.93-62.03-36.96-24.77 67.88 62.09 37.01m-74.96-1.6-24.72 67.88 62.04 37.01 24.71-67.88-62.03-37.01m50.51-138.7 62.04 37.01 24.7-67.93-62.04-37.02-24.7 67.94m37.58-103.35 62.04 37.01 24.76-67.87-62.04-37.01-24.76 67.87m69.43-166.98 36.71-21.19 31.12 18.6 16.9-46.42 11.23-6.46v112.74l-8.65-5.16-24.7 67.93 33.35 19.9v43.06l-46.22-27.6-24.72 67.93 62.04 37.02 8.9-24.56v108.31l-14.12 38.88 14.12 8.42v43.12l-27.05-16.13-24.7 67.88 51.75 30.91v168.79l-7.82-4.65-24.75 67.93 32.57 19.39v43.11l-45.45-27.13-24.71 67.92 62.04 37.02 8.12-22.34v108.21l-13.35 36.76 13.35 7.96v43.06l-26.27-15.66-24.71 67.93 50.98 30.45v168.79l-7.03-4.24-24.77 67.93 31.8 18.98v43.06l-44.67-26.63-24.72 67.93 62.09 37.03 7.3-20.12v108.11l-12.57 34.63 12.57 7.5v43.06l-25.44-15.2-24.77 67.93 8.63 5.17-63.33 5.27-52.58-31.37-13.43 36.86-40.58 3.35 21.65-59.5-62.03-37.06-24.76 67.93 50.09 29.87-103.44 8.59 8.16-22.39-62.09-37.01-23.98 65.85-67.05 5.6-41-24.46-10.5 28.74-40.53 3.36 18.67-51.38-62.04-37.07-24.76 67.93 38.56 23.01-86.18 7.13v-7.39l2.43-6.62-2.43-1.44v-43.12l15.3 9.15 24.71-67.93-40.01-23.83v-43.12l52.94 31.53 24.72-67.88-62.09-37.06-15.57 42.7v-108.1l20.83-57.18-20.83-12.41v-43.11l33.7 20.11 24.72-67.88-58.42-34.84v-120.41l1.6-4.39-1.6-0.99v-43.06l14.48 8.64 24.76-67.93-39.24-23.37v-43.12l52.11 31.07 24.72-67.88-62.09-37.01-14.74 40.47v-108.14l20.01-54.96-20.01-11.94v-43.07l32.93 19.6 24.72-67.89-57.65-34.38v-123.08l0.83-2.18-0.83-0.51v-43.07l13.7 8.17 24.71-67.93-38.41-22.9v-43.11l51.28 30.6 24.72-67.88-24.25-14.47 36.65-21.25 0.52 0.31 0.26-0.72 49.94-28.91-17.83 48.96 62.03 37.02 24.72-67.93-49.27-29.43 36.65-21.19 25.54 15.2 13.8-37.94 67.67-39.19 50.51 30.14 24.72-67.88-4.87-2.94 57.49-33.25-7.34 20.11 62.04 37.01 24.71-67.93-29.93-17.83 36.71-21.19 6.15 3.61 3.3-9.1 49.94-28.9-20.89 57.34 62.04 37.02 24.72-67.94-54.96-32.77" fill="#65929d"/><path d="m2732.6 4640.2 81.83-47.25 81.79 47.25-81.79 47.62-81.83-47.62" fill="#def4f8"/><path d="m3529 4574.2-796.36 66.01v-94.5l796.72-66.18-0.36 94.67" fill="#aec6c7"/><path d="m3529 4574.2-796.36 66.01 81.79 47.2 796.71-66.17-82.14-47.04" fill="#def4f8"/><path d="m438.89 3115.6 37.379-61.89-53.707-48.33-37.438 61.83zm3.164-142.43 53.711 48.33 37.429-61.87-53.769-48.34zm28.836-119.31 37.441-61.84-53.769-48.34-37.383 61.84zm-24.817-167.62 37.387-61.83-53.715-48.33-37.43 61.83zm3.11-142.42 53.765 48.34 37.375-61.83-53.711-48.34zm28.906-119.27 37.371-61.82-53.711-48.34-37.383 61.83zm-24.875-167.6 37.43-61.83-53.766-48.34-37.379 61.83zm-24.863-167.6 37.421-61.89-53.757-48.28-37.379 61.83zm3.203-142.44 53.711 48.34 37.375-61.87-53.711-48.29zm56.867-94.08 53.719 48.33 37.363-61.88-53.699-48.28zm119.11 11.68-37.375 61.84 53.711 48.33 37.387-61.83zm44.356 135.39 53.718 48.29 37.375-61.82-53.71-48.34zm81.738 73.52 53.711 48.34 37.383-61.89-53.711-48.28zm81.738 73.51 53.711 48.34 37.422-61.88-53.762-48.28zm81.731 73.57 53.719 48.29 37.421-61.83-53.757-48.34zm56.863-94.08 53.773 48.28 37.37-61.84-53.709-48.33zm119.17 11.63-37.43 61.88 53.71 48.33 37.43-61.88zm44.35 135.4 53.71 48.33 37.39-61.89-53.72-48.28zm81.74 73.55 53.71 48.29 37.37-61.82-53.72-48.34zm81.68 73.52 53.76 48.34 37.37-61.89-53.71-48.33zm56.91-94.08 53.72 48.33 37.38-61.88-53.71-48.34zm119.12 11.68-37.38 61.82 53.71 48.34 37.44-61.87zm44.35 135.39 53.72 48.29 37.42-61.89-53.71-48.28zm81.74 73.51 53.71 48.34 37.43-61.88-53.71-48.33zm81.73 73.52 53.72 48.34 37.43-61.89-53.72-48.34zm81.74 73.56 53.71 48.29 37.38-61.83-10.91-9.82h0.05l-42.8-38.57zm56.86-94.08 53.71 48.28 37.39-61.82-10.86-9.83h0.04l-42.85-38.51zm119.33 11.84-37.39 61.77 53.73 48.29 37.36-61.78zm44.35 135.29 53.71 48.34 37.38-61.84-53.71-48.28zm81.73 73.56 53.72 48.28 37.38-61.77-53.72-48.34zm81.74 73.52 53.71 48.28 37.38-61.78-53.72-48.34zm81.74 73.51 53.71 48.34 37.37-61.83-53.71-48.28zm56.91-94.09 53.66 48.33 37.38-61.82-53.71-48.28zm119.05 11.74-37.31 61.83 53.65 48.28 37.39-61.83zm44.42 135.34 53.66 48.28 37.37-61.77-53.71-48.33zm81.74 73.52 53.71 48.34 37.32-61.84-53.66-48.28zm81.73 73.56 53.66 48.28 37.38-61.82-53.67-48.29zm81.73 73.52 53.67 48.28 37.37-61.83-53.66-48.29zm34.17 80.54-53.72-48.29-37.37 61.84 53.72 48.28zm-28.84 119.32-37.38 61.83 53.71 48.34 37.38-61.88zm24.86 167.6-37.37 61.84 53.71 48.33 37.38-61.83zm-3.14 142.43-53.73-48.33-37.43 61.82 53.71 48.35zm-28.91 119.27-37.37 61.83 53.71 48.34 37.43-61.84zm24.87 167.6-37.38 61.83 53.72 48.34 37.37-61.83zm-3.16 142.43-53.71-48.34-37.39 61.83 53.72 48.34zm-28.84 119.26-37.44 61.83 53.77 48.35 37.38-61.84zm-3.15 142.43-53.77-48.34-37.39 61.84 53.72 48.33zm-119.17-11.68 37.43-61.83-53.77-48.34-37.38 61.83zm-44.36-135.39-53.71-48.34-37.38 61.88 53.72 48.34zm-81.73-73.52-53.72-48.34-37.37 61.83 53.71 48.34zm-81.74-73.51-53.71-48.34-37.38 61.83 53.71 48.33zm-56.86 94.08-53.71-48.33-37.39 61.83 53.73 48.34zm-119.11-11.73 37.37-61.83-53.71-48.29-37.43 61.78zm-44.36-135.34-53.71-48.35-37.38 61.84 53.71 48.33zm-81.74-73.52-53.77-48.33-37.31 61.82 53.71 48.34zm-81.73-73.51-53.76-48.34-37.39 61.78 53.77 48.39zm-81.73-73.51-53.77-48.34-37.38 61.78 53.76 48.33zm-56.88 94.03-53.76-48.34-37.38 61.84 53.77 48.33zm-119.1-11.68 37.32-61.84-53.71-48.33-37.38 61.83zm-44.41-135.35-53.72-48.34-37.37 61.79 53.76 48.38zm-81.73-73.51-53.72-48.34-37.38 61.78 53.72 48.33zm-81.74-73.57-53.71-48.33-37.38 61.83 53.72 48.34zm-81.73-73.51-53.72-48.34-37.37 61.83 53.71 48.34zm-56.87 94.09-53.76-48.34-37.34 61.78 53.72 48.39zm-119.32-11.84 37.43-61.83-11.06-9.92h0.1l-42.75-38.47-37.43 61.88zm-44.31-135.4-53.71-48.34-37.43 61.89 53.71 48.33zm-81.73-73.51-53.72-48.34-37.42 61.88 53.71 48.34zm-81.73-73.57-53.776-48.33-37.371 61.88 53.711 48.39zm-81.733-73.51-53.769-48.34-37.383 61.89 53.723 48.33zm-56.875 94.09-53.762-48.34-37.378 61.88 53.718 48.34zm-119.16-11.63 37.434-61.89-53.774-48.33-37.429 61.82zm-44.309-135.39-53.757-48.4-37.43 61.88 53.766 48.34zm-81.738-73.58-53.758-48.34-37.429 61.89 53.765 48.34zm-116-154.05 53.723 48.33 37.422-61.87-53.762-48.34zm-24.863-167.61 53.77 48.33 37.375-61.87-53.77-48.34zm12.559-229.49-37.43 61.84 53.766 48.39 37.375-61.89zm19.492-32.21 53.711 48.34 37.383-61.87-53.719-48.34zm-24.871-167.65 53.718 48.34 37.383-61.83-53.722-48.34zm-24.868-167.61 53.723 48.35 37.434-61.84-53.774-48.34zm12.571-229.42-37.434 61.82 53.774 48.34 37.371-61.83zm110.58-45.77-53.711-48.33-37.387 61.83 53.723 48.34zm81.734 73.52-53.718-48.34-37.375 61.89 53.71 48.29zm81.731 73.52-53.711-48.34-37.371 61.88 53.711 48.34zm81.738 73.51-53.711-48.28-37.383 61.83 53.711 48.34zm81.731 73.57-53.711-48.33-37.375 61.82 53.711 48.34zm28.027 25.17-37.387 61.89 53.723 48.29 37.374-61.84zm110.63-45.75-53.72-48.33-37.422 61.87 53.712 48.34zm81.73 73.52-53.71-48.29-37.42 61.83 53.71 48.34zm81.74 73.51-53.72-48.29-37.42 61.89 53.71 48.29zm81.73 73.57-53.71-48.34-37.42 61.88 53.71 48.34zm28.02 25.17-37.43 61.89 53.72 48.34 37.43-61.89zm110.58-45.75-53.71-48.33-37.37 61.87 53.71 48.34zm81.74 73.51-53.71-48.28-37.38 61.88 53.72 48.29zm81.74 73.57-53.72-48.33-37.38 61.87 53.72 48.34zm81.78 73.51-53.76-48.34-37.39 61.89 53.72 48.34zm109.85 98.9-37.37 61.84 53.72 48.28 37.37-61.78zm110.58-45.75-53.71-48.34-37.32 61.84 53.71 48.28zm81.73 73.51-53.65-48.28-37.38 61.77 53.72 48.35zm81.8 73.52-53.72-48.28-37.38 61.83 53.72 48.29zm81.73 73.56-53.71-48.33-37.39 61.83 53.72 48.28zm81.74 73.52-53.72-48.29-37.38 61.79 53.71 48.33zm28.01 25.23-37.37 61.77 53.71 48.34 37.38-61.83zm110.59-45.81-53.71-48.29-37.38 61.84 53.71 48.28zm81.73 73.57-53.71-48.34-37.38 61.83 53.72 48.29zm81.74 73.51-53.71-48.34-37.39 61.83 53.72 48.34zm81.74 73.52-53.73-48.28-37.37 61.77 53.71 48.34zm24.86 167.6-53.72-48.28-37.37 61.83 53.71 48.28zm-12.52 229.44 37.38-61.83-53.71-48.29-37.38 61.83zm-19.48 32.26-53.77-48.29-37.38 61.83 53.72 48.29zm24.81 167.61-53.71-48.3-37.38 61.83 53.71 48.34zm-12.51 229.48 37.37-61.83-53.71-48.34-37.37 61.83zm-19.49 32.2-53.72-48.28-37.37 61.83 53.71 48.34zm-66.28 181.16 53.77 48.33 37.37-61.83-53.76-48.34zm-81.73-73.52 53.76 48.34 37.38-61.89-53.71-48.28zm-81.74-73.57 53.77 48.34 37.38-61.83-53.77-48.34zm-81.74-73.51 53.77 48.34 37.39-61.83-53.77-48.34zm-28.01-25.18 37.43-61.83-53.77-48.33-37.37 61.83zm-110.58 45.75 53.71 48.34 37.38-61.83-53.72-48.33zm-81.74-73.56 53.71 48.34 37.39-61.83-53.71-48.34zm-81.73-73.51 53.72 48.33 37.38-61.83-53.72-48.34zm-81.73-73.52 53.71 48.34 37.38-61.83-53.71-48.34zm-81.74-73.57 53.72 48.34 37.37-61.78-53.71-48.34zm-28.02-25.17 37.38-61.83-53.72-48.29-37.37 61.78zm-110.59 45.75 53.73 48.33 37.37-61.82-53.76-48.34zm-81.77-73.52 53.77 48.34 37.37-61.83-53.77-48.33zm-81.74-73.56 53.77 48.34 37.37-61.78-53.76-48.34zm-81.74-73.51 53.77 48.33 37.32-61.78-53.71-48.34zm-81.73-73.52 53.77 48.34 37.33-61.83-53.73-48.34zm-28.17-25.28 37.37-61.88-11.01-9.87 0.05-0.06-42.75-38.46-37.38 61.93zm-110.64 45.7 53.77 48.34 37.38-61.83-11.02-9.93h0.06l-42.75-38.46zm-81.73-73.51 53.76 48.34 37.39-61.88-53.72-48.34zm-81.73-73.52 53.77 48.34 37.37-61.88-53.71-48.34zm-81.744-73.56 53.774 48.38 37.37-61.88-53.71-48.33zm-81.726-73.52 53.762 48.34 37.378-61.88-53.718-48.34zm-27.969-25.18 37.371-61.87-53.711-48.34-37.429 61.88zm-110.64 45.76 53.711 48.34 37.434-61.89-53.77-48.33zm-81.738-73.57 53.723 48.4 37.422-61.89-53.758-48.33zm-81.726-73.51 53.71 48.34 37.43-61.88-53.765-48.34zm-24.875-167.61 53.773 48.34 37.383-61.88-53.774-48.34zm12.57-229.48-37.434 61.88 53.762 48.34 37.383-61.88zm19.433-32.21 53.77 48.34 37.371-61.89-53.711-48.33zm-24.812-167.6 53.711 48.34 37.383-61.89-53.711-48.33zm-24.863-167.61 53.711 48.3 37.429-61.84-53.769-48.34zm66.277-181.15-53.723-48.33-37.422 61.83 53.762 48.34zm81.727 73.52-53.707-48.34-37.434 61.88 53.769 48.34zm81.742 73.51-53.723-48.29-37.422 61.84 53.762 48.34zm81.726 73.57-53.711-48.34-37.429 61.83 53.765 48.34zm81.739 73.51-53.711-48.34-37.434 61.89 53.762 48.34zm28.015 25.18-37.371 61.88 53.712 48.34 37.38-61.88zm110.64-45.75-53.77-48.34-37.38 61.88 53.71 48.34zm81.68 73.51-53.72-48.28-37.37 61.83 53.71 48.33zm81.78 73.57-53.77-48.34-37.37 61.88 53.71 48.28zm81.74 73.51-53.72-48.34-37.42 61.89 53.71 48.34zm28.02 25.18-37.43 61.88 53.72 48.34 37.42-61.89zm110.57-45.75-53.71-48.34-37.42 61.88 53.71 48.33zm81.74 73.51-53.71-48.29-37.43 61.89 53.72 48.34zm81.74 73.57-53.72-48.34-37.42 61.88 53.76 48.34zm163.62 147.23-53.72-48.34-37.37 61.83 53.71 48.29zm28.02 25.23-37.38 61.77 53.72 48.34 37.37-61.82zm110.58-45.8-53.71-48.29-37.33 61.78 53.66 48.33zm81.74 73.51-53.71-48.29-37.33 61.78 53.71 48.34zm81.73 73.57-53.72-48.34-37.38 61.82 53.77 48.29zm81.73 73.51-53.71-48.34-37.32 61.83 53.71 48.34zm81.79 73.52-53.76-48.29-37.33 61.77 53.72 48.34zm28.02 25.22-37.38 61.78 53.72 48.34 37.32-61.84zm110.58-45.81-53.71-48.28-37.38 61.84 53.72 48.28zm81.73 73.58-53.71-48.34-37.37 61.83 53.71 48.33zm81.74 73.51-53.71-48.34-37.38 61.83 53.72 48.34zm-12.51 229.43 37.37-61.83-53.71-48.28-37.37 61.77zm-19.54 32.26-53.66-48.34-37.43 61.84 53.71 48.33zm24.86 167.61-53.71-48.34-37.37 61.83 53.71 48.33zm-12.51 229.43 37.38-61.83-53.71-48.28-37.38 61.82zm-110.58 45.8 53.72 48.29 37.37-61.83-53.71-48.34zm-81.78-73.56 53.76 48.34 37.38-61.84-53.72-48.33zm-81.74-73.51 53.77 48.33 37.37-61.83-53.71-48.34zm-27.97-25.23 37.38-61.83-53.76-48.29-37.38 61.83zm-110.63 45.75 53.77 48.34 37.32-61.84-53.71-48.28zm-81.73-73.52 53.71 48.34 37.37-61.82-53.71-48.34zm-81.74-73.51 53.71 48.33 37.39-61.82-53.73-48.34zm-81.73-73.56 53.71 48.34 37.38-61.79-53.71-48.33zm-81.74-73.52 53.72 48.34 37.38-61.83-53.72-48.29zm-28.01-25.18 37.37-61.83-53.71-48.34-37.38 61.84zm-110.59 45.76 53.72 48.33 37.37-61.83-53.76-48.33zm-81.73-73.57 53.71 48.34 37.38-61.78-53.77-48.34zm-81.74-73.51 53.72 48.34 37.38-61.78-53.77-48.34zm-81.78-73.52 53.77 48.34 37.37-61.83-53.76-48.29zm-81.89-73.62 53.71 48.34 37.39-61.88-10.97-9.88h0.05l-42.76-38.46zm-28.02-25.23 37.43-61.87-53.76-48.34-37.39 61.88zm-110.58 45.76 53.71 48.34 37.43-61.89-53.77-48.34zm-81.79-73.52 53.77 48.34 37.43-61.88-53.77-48.34zm-81.73-73.51 53.76 48.33 37.43-61.87-53.76-48.34zm-81.737-73.56 53.757 48.33 37.39-61.89-53.71-48.33zm-81.726-73.52 53.757 48.34 37.375-61.89-53.711-48.33zm-27.981-25.17 37.387-61.89-53.723-48.34-37.422 61.89zm-110.63 45.69 53.77 48.39 37.383-61.88-53.711-48.34zm-81.726-73.52 53.711 48.34 37.429-61.82-53.769-48.34zm12.554-229.48-37.421 61.89 53.761 48.34 37.383-61.89zm19.497-32.21 53.718 48.34 37.371-61.83-53.711-48.34zm-24.868-167.6 53.711 48.34 37.434-61.89-53.762-48.28zm66.282-181.15-53.719-48.34-37.434 61.89 53.77 48.33zm81.726 73.52-53.711-48.29-37.429 61.83 53.71 48.34zm81.738 73.56-53.711-48.33-37.441 61.82 53.723 48.34zm81.731 73.52-53.711-48.34-37.434 61.89 53.774 48.33zm28.023 25.18-37.425 61.88 53.765 48.33 37.38-61.87zm110.58-45.76-53.71-48.29-37.38 61.83 53.72 48.35zm81.74 73.57-53.72-48.34-37.42 61.88 53.76 48.29zm81.73 73.51-53.71-48.34-37.39 61.89 53.72 48.33zm81.74 73.52-53.72-48.34-37.38 61.88 53.71 48.34zm28.01 25.18-37.37 61.93 53.71 48.28 37.43-61.88zm110.64-45.77-53.71-48.28-37.44 61.84 53.72 48.33zm81.73 73.58-53.71-48.34-37.44 61.87 53.71 48.34zm163.63 147.23-53.77-48.34-37.32 61.78 53.71 48.34zm81.73 73.51-53.71-48.33-37.38 61.83 53.71 48.29zm28.02 25.23-37.38 61.78 53.71 48.34 37.39-61.83zm110.58-45.8-53.71-48.29-37.38 61.78 53.71 48.34zm81.73 73.56-53.71-48.33-37.38 61.78 53.72 48.34zm81.74 73.51-53.71-48.33-37.39 61.83 53.72 48.34zm81.74 73.52-53.72-48.28-37.38 61.78 53.71 48.33zm81.72 73.52-53.71-48.29-37.38 61.78 53.72 48.34zm28.02 25.23-37.37 61.83 53.71 48.28 37.38-61.78zm110.64-45.76-53.71-48.33-37.39 61.82 53.72 48.3zm44.35 135.35 37.39-61.83-53.72-48.34-37.38 61.83zm-19.54 32.26-53.71-48.34-37.38 61.83 53.72 48.34zm24.87 167.6-53.72-48.33-37.37 61.82 53.71 48.34zm-66.23 181.1 53.72 48.34 37.38-61.83-53.72-48.34zm-81.72-73.52 53.71 48.34 37.38-61.83-53.72-48.34zm-81.74-73.51 53.72 48.34 37.37-61.83-53.71-48.34zm-28.02-25.23 37.37-61.83-53.71-48.29-37.37 61.79zm-110.64 45.75 53.76 48.34 37.39-61.83-53.76-48.33zm-81.72-73.51 53.76 48.34 37.37-61.83-53.76-48.34zm-81.74-73.51 53.76 48.33 37.33-61.82-53.72-48.34zm-81.74-73.57 53.77 48.34 37.32-61.78-53.71-48.34zm-81.73-73.52 53.71 48.35 37.39-61.84-53.73-48.33zm-27.98-25.17 37.33-61.83-53.7-48.34-37.39 61.84zm-110.62 45.75 53.71 48.29 37.37-61.78-53.71-48.34zm-81.74-73.57 53.71 48.34 37.38-61.78-53.71-48.33zm-81.73-73.51 53.71 48.34 37.37-61.83-53.71-48.29zm-81.94-73.62 53.71 48.34 37.43-61.88-11.02-9.87h0.06l-42.75-38.47zm-81.74-73.56 53.76 48.34 37.38-61.88-53.71-48.34zm-28.02-25.18 37.43-61.88-53.71-48.34-37.43 61.88zm-110.57 45.76 53.71 48.34 37.43-61.89-53.77-48.34zm-81.74-73.52 53.71 48.34 37.43-61.88-53.76-48.34zm-81.73-73.56 53.71 48.33 37.43-61.83-53.78-48.34zm-81.739-73.52 53.711 48.33 37.428-61.87-53.764-48.34zm-81.739-73.52 53.719 48.34 37.426-61.88-53.762-48.34zm-15.461-254.65-53.757-48.34-37.371 61.82 53.707 48.34zm81.743 73.5-53.762-48.33-37.383 61.88 53.711 48.34zm81.726 73.52-53.762-48.33-37.371 61.87 53.711 48.34zm28.03 25.17-37.432 61.89 53.722 48.34 37.42-61.89zm110.58-45.74-53.72-48.29-37.43 61.83 53.77 48.34zm81.73 73.56-53.71-48.33-37.43 61.87 53.77 48.34zm-56.87 94.09-53.71-48.34-37.43 61.88 53.76 48.34zm-9.41 87.06 53.72 48.34 37.43-61.89-53.72-48.34zm148.02-107.64-53.71-48.34-37.44 61.89 53.77 48.34zm81.73 73.52-53.71-48.34-37.43 61.88 53.77 48.34zm28.03 25.23-37.45 61.88 53.77 48.34 37.39-61.94zm110.62-45.76-53.76-48.34-37.38 61.9 53.71 48.33zm163.58 147.24-53.72-48.34-37.38 61.78 53.77 48.33zm-66.23 181.1 53.72 48.29 37.37-61.79-53.72-48.33zm-81.73-73.57 53.71 48.34 37.38-61.78-53.71-48.33zm-1.76-96.99 0.05-0.05-42.81-38.45-37.37 61.87 53.71 48.34 37.39-61.82zm231.45 62.97-53.72-48.34-37.32 61.84 53.71 48.28zm81.73 73.52-53.71-48.28-37.32 61.77 53.71 48.34zm28.03 25.23-37.38 61.77 53.77 48.34 37.37-61.83zm110.63-45.81-53.72-48.29-37.38 61.79 53.72 48.33zm81.73 73.57-53.71-48.34-37.38 61.83 53.71 48.29zm81.74 73.51-53.72-48.33-37.37 61.82 53.71 48.34zm-66.23 181.1 53.71 48.34 37.38-61.84-53.72-48.33zm-72.37-160.52-53.77-48.34-37.33 61.83 53.71 48.29zm-9.36 87 53.71 48.34 37.38-61.83-53.76-48.34zm229.69-34.06-53.71-48.34-37.38 61.83 53.72 48.33zm72.37 160.57 53.72 48.34 37.38-61.83-53.71-48.34zm9.37-87.06-53.72-48.28-37.38 61.83 53.71 48.28zm-721.92-504.1h0.06l-42.81-38.52-37.37 61.89 53.71 48.33 37.38-61.83zm-842.41-176.86-37.434 61.83 53.77 48.33 37.375-61.82zm73.203 16.13 37.371-61.89-53.711-48.34-37.371 61.89zm826.13 66.64h0.05l-42.81-38.52-37.43 61.88 53.71 48.34 37.43-61.83zm56.86-94.04 0.11-0.05-42.86-38.52-37.42 61.89 53.76 48.33 37.37-61.83zm56.92-94.1h0.06l-42.87-38.56-37.37 61.89 53.71 48.34 37.38-61.84zm-1211.8 362.41-53.723-48.33-37.422 61.87 53.762 48.34zm-118.91 133.8-70.625-40.79v-22.75l13.55 12.15 37.379-61.84-50.929-45.8v-78.68l26.066-43.11-26.066-23.48v-49.79l45.546 41 37.383-61.83-53.715-48.34-29.214 48.3v-71.45l1.199-2.02-1.199-1.14v-49.78l20.683 18.66 37.434-61.83-53.766-48.34-4.351 7.18v-71.49l33.25-54.96-33.25-29.93v-49.79l52.738 47.46 37.383-61.82-53.723-48.34-36.398 60.17v-71.5l8.375-13.91-8.375-7.54v-49.73l27.875 25.07 37.371-61.88-53.711-48.29-11.535 19.08v-79.26l3.003 2.69 37.379-61.83-40.382-36.34v-105.51l15.562-25.75-15.562-13.96v-49.84l35.058 31.54 37.375-61.83-53.715-48.29-18.718 30.92v-97.55l10.191 9.14 29.312-48.48 32.051 18.55-33.34 55.17 53.711 48.34 37.371-61.9-25.742-23.15 155.04 89.6-0.047 0.04 53.711 48.34 7.813-12.87 32.051 18.5-11.844 19.6 53.719 48.28 19.59-32.36 32.058 18.56-23.633 39.04 53.711 48.33 31.391-51.86 32.051 18.52-35.364 58.52 53.661 48.33 37.433-61.82-39.863-35.88 171.17 98.94-2.06 3.42 53.71 48.33 9.81-16.28 32.07 18.57-13.86 22.89 53.71 48.34 21.61-35.73 32.05 18.51-25.63 42.45 53.71 48.28 33.39-55.21 186.37 107.68 0.57 0.53 0.1-0.11 32.06 18.51-4.14 6.82 53.72 48.33 11.89-19.63 32.05 18.5-15.93 26.32 53.72 48.33 23.68-39.13 32.05 18.51-27.71 45.8 53.71 48.34 35.47-58.63 170.39 98.49 14.68 13.18 2.13-3.46 32.1 18.5-6.15 10.19 53.66 48.34 13.91-23.01 32.1 18.55-17.93 29.68 53.66 48.29 25.69-42.5 32.1 18.57-29.77 49.16 53.71 48.34 37.38-61.84-0.72-0.66 154.88 89.49 28.85 25.95 4.13-6.88 32.06 18.56-8.18 13.54 53.72 48.34 15.92-26.41 32.1 18.55-20 33.04 53.71 48.34 27.72-45.86 32.05 18.5-31.75 52.58 53.72 48.29 37.37-61.83-14.78-13.28 49.78 28.74v16.02l-6.97-6.25-37.38 61.83 44.35 39.85v95.55l-19.48 32.2 19.48 17.52v49.79l-39.03-35.05-37.37 61.83 53.71 48.34 22.69-37.48v107.63l-14.16-12.72-37.38 61.84 51.54 46.37v77.18l-26.67 44.05 26.67 23.99v49.79l-46.16-41.52-37.38 61.83 53.72 48.33 29.82-49.31v71.55l-1.86 2.99 1.86 1.61v49.78l-21.34-19.18-37.39 61.84 53.73 48.33 5-8.22v71.55l-33.85 55.99 33.85 30.4v49.78l-53.34-47.97-37.39 61.83 53.71 48.34 37.02-61.21v71.54l-8.99 14.89 8.99 8.07v49.78l-28.48-25.64-37.43 61.88 53.77 48.29 12.14-20.06v80.75l-3.67-3.25-31.37 51.95-32.05-18.5 35.45-58.63-53.76-48.34-37.38 61.88 40.12 36.03-171.43-99.04 2.07-3.52-53.72-48.34-9.87 16.34-32-18.51 13.86-23.01-53.72-48.33-21.66 35.82-32.05-18.51 25.7-42.49-53.72-48.34-33.45 55.27-186.16-107.59-0.78-0.66-0.1 0.2-32.05-18.51 4.18-6.87-53.76-48.34-11.9 19.69-31.99-18.56 15.92-26.31-53.76-48.33-23.68 39.13-32.01-18.51 27.71-45.8-53.76-48.34-35.47 58.63-170.03-98.28-14.84-13.34-2.17 3.52-32-18.51 6.15-10.18-53.71-48.34-13.96 23-32.01-18.51 17.94-29.67-53.76-48.34-25.69 42.5-32-18.51 29.72-49.22-53.76-48.34-37.33 61.83 0.83 0.73-154.69-89.33-29.3-26.37-4.19 6.98-32.05-18.51 8.27-13.65-53.76-48.34-15.98 26.47-32.06-18.5 20.06-33.15-53.761-48.38-27.761 45.96-32.051-18.51 31.843-52.63-53.769-48.34-37.434 61.89 14.993 13.49-154.57-89.33-43.32-38.99-6.262 10.35-32.051-18.51 10.286-17.01-53.711-48.39-18.039 29.83-32.047-18.51 22.066-36.5-53.758-48.34-29.785 49.33-32.051-18.51 33.86-55.99-53.762-48.34-37.371 61.84 29.098 26.21" fill="#7badb1"/><path d="m3611.1 4621.2-1797-1038.3-777.54-449.27v-1932l108.36-62.81 15.72 9.42v1962.4l777.53 400.03 1548.8 893.76v-1787.6l108.36-62.82 39.3 21.97 84.78 2022.1-108.36 23.05" fill="#91b9bc"/><path d="m1145 3112.2v-1973.4l15.72 9.42 108.41 61.25v1828.9l2326.3 1344.6v-1828.9l39.3 21.97 84.78 50.25v1971.9l-2574.5-1486" fill="#b5d0d0"/><path d="m1036.3 3133.6 108.67-22.22 2574.6 1487.5-108.67 22.28-2574.6-1487.6" fill="#def4f8"/><path d="m322.06 3152v-1537l-81.786 47.26v1537.4l81.786-47.67" fill="#91b9bc"/><path d="m322.06 3152v-1537l81.839 47.26v1537.4l-81.839-47.67" fill="#b5d0d0"/><path d="m240.27 3199.7 81.786-47.26 81.839 47.26-81.839 47.62-81.786-47.62" fill="#def4f8"/><path d="m1036.6 3133.6-796.35 66.03v-94.5l796.67-66.17-0.32 94.64" fill="#91b9bc"/><path d="m1036.6 3133.6-796.35 66.03 81.786 47.2 796.71-66.18-82.15-47.05" fill="#def4f8"/><path d="m952.77 1551.4-24.754 67.93 62.027 37.01 24.771-67.92zm19.187 262.94-24.715 67.93 62.042 37.01 24.71-67.93zm24.453 140.35-62.09-37.01-24.714 67.93 62.043 37.01zm-42.859 225.92-24.707 67.93 62.031 37.02 24.719-67.93zm19.18 262.94-24.715 67.93 62.038 37.01 24.77-67.93zm24.453 140.36-62.039-37.02-24.77 67.93 62.102 37.02zm-42.864 225.92-24.707 67.93 62.036 37.01 24.765-67.93zm24.454 140.3-62.032-37.01-24.761 67.93 62.086 37.01zm-94.391-56.3-62.094-37.01-24.715 67.88 62.09 37.06zm-94.406-56.35-62.09-37.01-24.707 67.93 62.043 37.01zm-37.637 103.34-62.039-37.06-24.758 67.93 62.09 37.01zm-94.395-56.34-62.089-37.03-24.707 67.94 62.082 37.01zm-37.636 103.33-62.039-37.06-24.77 67.93 62.102 37.02zm-94.407-56.34-62.085-37.01-24.711 67.88 62.089 37.06zm-81.519-91.71 24.707-67.93-62.094-37.01-24.707 67.87zm-19.184-262.99 24.707-67.87-62.082-37.08-24.715 67.94zm-24.5-140.3 62.078 37.01 24.719-67.93-62.043-37.01zm42.903-225.93 24.715-67.92-62.09-37.02-24.715 67.93zm-19.231-262.98 24.719-67.88-62.043-37.02-24.711 67.88zm-24.453-140.31 62.09 37.01 24.719-67.93-62.09-37.01zm37.637-103.29 62.043 37.01 24.707-67.93-62.031-37.01zm94.394 56.3 62.039 37.01 24.77-67.87-62.094-37.02zm37.637-103.29 62.039 37.01 24.719-67.93-62.039-37.01zm37.59-103.3 62.039 37.02 24.719-67.93-62.043-37.02zm94.402 56.3 62.039 37.01 24.758-67.92-62.043-36.97zm37.625-103.29 62.043 37.01 24.719-67.93-62.043-37.01zm213.27 252.96 24.707-67.88-62.031-37.02-24.719 67.88zm-37.59 103.34 24.719-67.93-62.043-37.01-24.766 67.92zm-12.922 35.36-62.039-37.02-24.707 67.94 62.031 37.01zm32.102 227.58 24.715-67.94-62.04-37.01-24.707 67.93zm-12.871 35.41-62.039-37.07-24.766 67.93 62.098 37.01zm32.097 227.52 24.719-67.88-62.09-37.07-24.707 67.94zm-37.625 103.34 24.707-67.93-62.043-37.01-24.707 67.93zm-12.883 35.36-62.078-37.01-24.718 67.93 62.089 37.01zm32.063 227.58 24.758-67.93-62.09-37.02-24.707 67.94zm-99.68 66.27 62.09 37.02 24.707-67.93-62.027-37.01zm5.278-122.62 24.714-67.88-62.043-37.07-24.714 67.93zm-99.668 66.27 62.078 37.07 24.719-67.93-62.043-37.02zm5.269-122.57 24.707-67.93-62.039-37.02-24.765 67.93zm-37.586 103.29 24.707-67.94-62.082-37.01-24.715 67.93zm-99.726 66.27 62.09 37.07 24.714-67.93-62.039-37.07zm5.273-122.56 24.707-67.94-62.031-37.02-24.766 67.88zm-37.59 103.29 24.719-67.93-62.09-37.03-24.719 67.93zm-99.668 66.27 62.032 37.02 24.765-67.88-62.09-37.06zm-32.105-227.57-24.707 67.93 62.09 37.02 24.707-67.88zm37.586-103.29-24.715 67.93 62.09 37.01 24.715-67.93zm12.922-35.41 62.039 37.06 24.765-67.93-62.09-37.01zm-32.102-227.53-24.719 67.88 62.09 37.07 24.719-67.93zm12.871-35.41 62.09 37.01 24.707-67.88-62.031-37.06zm-32.051-227.52-24.714 67.87 62.039 37.02 24.714-67.88zm37.586-103.35-24.715 67.94 62.04 37.01 24.757-67.93zm99.668-66.27-62.039-37.02-24.758 67.94 62.09 37.01zm-5.222 122.62-24.754 67.88 62.078 37.07 24.719-67.93zm37.586-103.34-24.715 67.93 62.043 37.02 24.715-67.88zm37.636-103.3-24.761 67.93 62.086 37.03 24.707-67.93zm99.621-66.28-62.043-37.01-24.707 67.88 62.043 37.03zm88.914 387.17 24.719-67.88-62.043-37.01-24.754 67.88zm-12.859 35.41-62.09-37.01-24.719 67.93 62.036 37.01zm32.051 227.58 24.758-67.93-62.082-37.02-24.715 67.94zm-37.586 103.29 24.715-67.93-62.039-37.01-24.77 67.92zm-99.668 66.28 62.027 37.06 24.77-67.93-62.094-37.06zm5.215-122.58 24.762-67.93-62.086-37.01-24.707 67.88zm-37.578 103.29 24.707-67.93-62.043-37.01-24.707 67.93zm-99.68 66.28 62.09 37.02 24.719-67.88-62.09-37.08zm-32.109-227.57-24.707 67.93 62.089 37.02 24.707-67.88zm75.222-206.59-24.715 67.88 62.09 37.07 24.715-67.92zm94.453 56.3-24.707 67.93 62.036 37.02 24.714-67.93zm18.098-157.99 24.758-67.93-62.094-37.01-24.707 67.93zm-74.91-1.65-24.719 67.93 62.039 37.02 24.707-67.89zm-94.707 151.94 24.707-67.93-62.043-37.01-24.707 67.93zm-5.227 122.63 62.032 37.02 24.714-67.94-62.031-37.02zm175.15-481.16-24.707 67.88 62.031 37.07 24.715-67.93zm112.55-101.68 24.707-67.94-62.032-37.01-24.707 67.93zm-74.961-1.66-24.715 67.93 62.039 37.01 24.766-67.93zm50.507-138.7 62.04 37.01 24.707-67.88-62.039-37.01zm37.637-103.3 62.039 37.02 24.707-67.93-62.027-37.01zm69.434-166.97 36.648-21.2 31.176 18.55 16.85-46.37 11.27-6.51v112.75l-8.63-5.11-24.77 67.87 33.4 19.91v43.06l-46.268-27.55-24.707 67.93 62.035 37.01 8.94-24.56v108.26l-14.16 38.93 14.16 8.42v43.07l-27.04-16.13-24.756 67.93 51.796 30.87v168.84l-7.86-4.7-24.71 67.93 32.57 19.43v43.07l-45.483-27.09-24.719 67.93 62.042 37.01 8.16-22.33v108.21l-13.39 36.75 13.39 7.96v43.07l-26.26-15.66-24.762 67.93 51.022 30.4v168.83l-7.08-4.23-24.71 67.94 31.79 18.96v43.07l-44.667-26.68-24.765 67.93 62.092 37.07 7.34-20.17v108.16l-12.61 34.59 12.61 7.54v43.07l-25.49-15.2-24.7 67.92 8.633 5.12-63.379 5.28-52.582-31.38-13.446 36.86-40.586 3.35 21.719-59.5-62.09-37.01-24.707 67.93 50.039 29.88-103.44 8.59 8.16-22.4-62.078-37.01-23.992 65.86-66.992 5.59-41.055-24.5-10.441 28.78-40.579 3.37 18.711-51.44-62.09-37.01-24.714 67.93 38.515 22.95-86.179 7.18v-7.44l2.429-6.62-2.429-1.44v-43.07l15.304 9.16 24.762-67.94-40.066-23.88v-43.06l52.937 31.53 24.719-67.88-62.098-37.07-15.558 42.65v-108.09l20.832-57.19-20.832-12.35v-43.12l33.711 20.12 24.707-67.94-58.418-34.84v-120.4l1.597-4.4-1.597-0.93v-43.11l14.531 8.63 24.707-67.88-39.238-23.42v-43.06l52.117 31.07 24.707-67.88-62.035-37.07-14.789 40.54v-108.16l20.054-54.96-20.054-11.94v-43.11l32.933 19.64 24.699-67.93-57.632-34.38v-123.04l0.828-2.22-0.828-0.47v-43.11l13.699 8.16 24.711-67.87-38.41-22.91v-43.11l51.336 30.6 24.714-67.88-24.304-14.52 36.711-21.2 0.464 0.31 0.254-0.77 49.946-28.85-17.832 48.91 62.031 37.01 24.766-67.88-49.321-29.42 36.653-21.2 25.539 15.21 13.804-38 67.668-39.14 50.567 30.15 24.707-67.88-4.91-2.95 57.488-33.25-7.344 20.06 62.039 37.02 24.719-67.88-29.883-17.89 36.649-21.19 6.156 3.67 3.308-9.16 49.934-28.89-20.883 57.38 62.031 37.02 24.719-67.93-54.902-32.77" fill="#65929d"/><path d="m1105.5 3324.3-72.07 5.99 19.44 69.64 72.02-6.05zm-42.54 111.93 19.43 69.58 72.02-5.99-19.39-69.59zm80.08-115.03 19.38 69.58 72.02-5.99-19.39-69.59zm29.52 105.88 19.39 69.63 72.01-6-19.39-69.58zm80.03-115.03 19.39 69.63 72.06-5.99-19.44-69.58zm101.53 99.93-72.02 6 19.4 69.58 72.06-6zm-42.5 111.93 19.39 69.58 72.07-5.99-19.44-69.59zm80.03-115.03 19.45 69.58 72.01-5.99-19.45-69.59zm101.59 99.88-72.07 5.99 19.45 69.59 72.01-6zm-42.54 111.92 19.43 69.59 72.01-6-19.38-69.59zm80.07-115.02 19.39 69.58 72.01-5.99-19.38-69.59zm101.54 99.88-72.02 6 19.39 69.58 72.01-5.95zm-42.5 111.92 19.38 69.58 72.01-5.99-19.37-69.58zm80.03-115.03 19.38 69.59 72.07-6-19.43-69.58zm101.54 99.88-72.02 6 19.38 69.64 72.06-6zm-42.5 111.93 19.38 69.59 72.07-6-19.44-69.59zm80.02-115.03 19.39 69.59 72.06-6-19.38-69.58zm29.52 105.93 19.39 69.59 72.07-6-19.39-69.64zm29.52 105.88 19.39 69.64 72.07-6.05-19.39-69.59zm80.03-115.03 19.44 69.64 72.02-6-19.39-69.64zm29.52 105.88 19.45 69.64 72-6-19.38-69.59zm80.08-114.98 19.39 69.59 72.07-6-19.45-69.58zm101.53 99.88-72.01 5.99 19.39 69.65 72.07-6zm-42.49 111.92 19.39 69.59 72.07-5.99-19.44-69.59zm80.02-115.02 19.4 69.58 72.07-5.99-19.4-69.59zm101.59 99.88-72.06 6 19.39 69.63 72.06-5.99zm-42.54 111.93 19.39 69.59 72.06-6-19.38-69.59zm80.03-115.04 19.43 69.64 72.02-5.99-19.38-69.64zm101.59 99.88-72.07 6.01 19.43 69.63 72.07-5.99zm-42.55 111.93 19.43 69.64 72.07-5.99-19.44-69.64zm80.08-115.02 19.38 69.63 72.06-5.99-19.43-69.64zm29.51 105.87 19.39 69.64 72.06-6-19.43-69.64zm29.52 105.93 19.38 69.64 72.07-6-19.44-69.64zm80.03-115.02 19.38 69.63 72.07-5.99-19.38-69.64zm29.52 105.87 19.39 69.64 72.07-6-19.39-69.63zm80.03-114.97 19.44 69.63 72.01-6.05-19.39-69.58zm101.58 99.88-72.06 5.99 19.43 69.64 72.02-6zm-42.55 111.92 19.45 69.64 72.01-6-19.39-69.64zm80.03-115.02 19.45 69.63 72.06-6-19.44-69.69zm101.59 99.88-72.07 5.99 19.45 69.63 72.06-5.99zm-42.54 111.92 19.44 69.64 72.06-6-19.43-69.64zm80.07-115.03 19.4 69.64 72.05-6-19.38-69.64zm101.6 99.88-72.08 6 19.39 69.64 72.07-5.95zm-199.77 87.89-19.39-69.64-72.07 6 19.45 69.64zm-109.55 9.15-19.39-69.64-72.06 6 19.39 69.64zm-101.58-99.93 72.07-6-19.4-69.64-72.06 6zm-37.48 3.1-19.45-69.64-72.01 6.05 19.39 69.58zm-139.08-96.78-19.43-69.63-72.06 5.99 19.43 69.64zm-109.6 9.15-19.37-69.63-72.07 5.99 19.38 69.64zm-101.58-99.93 72.07-5.99-19.38-69.65-72.07 6zm-37.48 3.1-19.43-69.58-72.02 5.99 19.39 69.59zm-101.58-99.88 72.07-6-19.44-69.63-72.01 5.99zm-37.54 3.11-19.38-69.59-72.07 5.99 19.44 69.59zm-101.53-99.89 72.02-5.99-19.4-69.64-72.06 6zm-37.53 3.1-19.39-69.58-72.07 5.99 19.39 69.59zm-139.07-96.77-19.44-69.64-72.02 5.99 19.4 69.64zm-109.59 9.1-19.4-69.59-72.06 6 19.43 69.58zm-101.55-99.88 72.02-6-19.38-69.64-72.02 6zm-37.53 3.1-19.38-69.59-72.07 6 19.44 69.58zm-101.53-99.94 72.01-5.94-19.38-69.64-72.06 6zm-37.53 3.16-19.44-69.59-72.01 6 19.38 69.59zm-101.59-99.93 72.07-6-19.44-69.58-72.02 5.99zm-37.53 3.15-19.38-69.59-72.03 6 19.4 69.59zm-29.52-105.93-19.39-69.58-72.01 5.99 19.39 69.59zm-109.55 9.15-19.39-69.63-72.07 5.99 19.45 69.59zm-109.54 9.1-19.45-69.58-72.01 6 19.39 69.58zm-101.6-99.93 72.027-6-19.39-69.58-72.019 5.99zm42.507-111.88-19.389-69.58-72.012 6 19.375 69.58zm-80.034 115.03-19.387-69.58-72.007 5.99 19.375 69.59zm-101.53-99.93 72.012-5.99-19.387-69.59-72.024 6zm42.5-111.88-19.399-69.58-72.007 6 19.382 69.59zm-80.031 115.04-19.395-69.59-72.012 6 19.383 69.58zm-101.54-99.94 72.019-5.99-19.383-69.59-72.019 6zm199.71-87.83 19.394 69.59 72.012-6-19.387-69.59zm109.55-9.1 19.44 69.59 72.01-6-19.38-69.59zm2136.8 1230.8 19.43 69.63 72.07-5.99-19.44-69.64zm-2483.6-1130.8-19.387-69.54-72.012 6 19.387 69.53zm511.92-113.79-55.48 4.64 19.38 69.55 72.02-5.95-15.77-56.61 45.75 26.41 7.55 27.04 34.33-2.84 91.77 52.99 13.01 46.64 59.25-4.92 61.32 35.41 18.51 66.33 72.02-6.05-2.7-9.61 71.15 41.1-20.8 1.71 19.39 69.63 72.07-6-8.17-29.25 101.54 58.62-45.75 3.78 19.43 69.63 72.02-5.99-13.65-48.92 45.75 26.43 5.43 19.33 24.61-2.02 56.2 32.47-70.73 5.84 19.44 69.64 72.01-6-19.07-68.55 45.75 26.42 10.86 39.03 49.57-4.14 73.16 42.24 16.34 58.68 72.07-6-0.58-1.96 59.25 34.16-11.07 0.94 19.45 69.63 72.01-5.99-6-21.61 89.65 51.75-35.98 3 19.38 69.64 72.07-6-11.53-41.26 45.75 26.42 3.26 11.73 14.89-1.24 56.19 32.42-60.95 5.06 19.39 69.65 72.06-6-16.95-60.9 45.75 26.41 8.74 31.39 39.81-3.32 85.04 49.07 14.21 51.02 64.78-5.37 56.19 32.41-1.29 0.1 19.4 69.64 72.06-6-3.88-13.9 77.75 44.87-26.26 2.17 19.44 69.69 72.01-5.99-9.36-33.61 45.76 26.42 1.14 4.03 5.12-0.41 56.19 32.41-51.23 4.23 19.44 69.7 72.06-6-14.83-53.25 45.75 26.42 6.56 23.68 30.15-2.48 96.88 55.93 2.16 7.76-39.54-4.09-7.44-26.88-72.07 6.05 9.46 34.07-39.5-4.14-7.5-26.83-72.06 6 9.51 34.06-39.49-4.08-7.5-26.88-72.06 6 9.5 34.12-39.49-4.08-7.49-26.89-72.07 5.99 9.51 34.13-39.55-4.14-7.5-26.88-72.06 6 9.51 34.12-39.49-4.09-7.5-26.88-72.07 6 9.51 34.12-39.49-4.08-7.5-26.94-72.07 6 7.29 26.21-96.73-55.89 41.83-3.46-19.45-69.64-72.01 6 12.78 45.86-45.77-26.42-4.55-16.34-20.67 1.75-56.19-32.46 66.79-5.53-19.44-69.63-72.07 6 18.25 65.44-45.7-26.36-10.03-35.99-45.64 3.83-77.97-45.03-15.51-55.58-70.57 5.9-56.19-32.47 7.14-0.57-19.44-69.64-72.07 6 5.16 18.51-84.88-49.01 32.11-2.64-19.39-69.63-72.07 5.99 10.65 38.16-45.75-26.42-2.38-8.58-10.95 0.87-56.25-32.46 57.07-4.75-19.44-69.59-72.02 5.99 16.09 57.81-45.71-26.43-7.91-28.27-35.88 3-89.85-51.85-13.33-47.93-60.85 5.07-59.4-34.28-18.82-67.57-72.06 6 2.99 10.85-73-42.18 22.34-1.86-19.39-69.58-72.01 5.99 8.47 30.5-45.75-26.42-0.25-0.98-1.2 0.1-56.24-32.46 47.3-3.93-19.39-69.59-72.07 6 14.02 50.14-45.8-26.41-5.74-20.57-26.11 2.17-101.75-58.79-11.211-40.22-51.082 4.29-71.34-41.2-16.648-59.86-72.012 6 0.879 3.15-61.164-35.31 12.57-1.04-19.398-69.58-72.008 5.99 6.355 22.81-91.601-52.89 37.578-3.1-19.383-69.58-72.016 5.98 11.836 42.45-45.801-26.41-3.574-12.88-16.39 1.34-51.844-29.93 766.99-63.74 51.65 29.83" fill="#def4f8"/><path d="m2413.6 1116c-27.73 0.01-45.95 21.38-71.38 38.36-26.81 17.92-95.34 59.21-75.38 91.91 3.63 5.94 10.18 11.6 20.45 16.78 27.5 13.88 52.96 31.79 75.32 52.98 23.7 22.45 44.37 52.13 73.21 68.28 29.36 16.42 52.38 31.04 78.4 54.85 54.95 50.27 119.24 89.01 183.06 127.4 25.49 15.33 50.96 30.67 76.45 46 4.21 2.53 8.42 5.05 12.62 7.56 22.64 13.49 45.1 26.8 66.82 41.78 24.14 16.66 52.13 19.83 79.8 28.35 67.11 20.69 126.29 60.04 185.99 95.87 23.44 14.09 47.15 28.35 66.47 47.7 15.14 15.17 27.27 33.12 42.58 48.1 19.3 18.87 43.04 32.43 66.48 45.78 42.98 24.45 85.95 48.9 128.92 73.35 38.41 21.86 78.32 45.1 102.24 82.28 12.45 19.37 20.06 41.85 34.78 59.56 26.1 31.38 69.04 41.88 108.93 50.59 2.97 0.65 6.08 1.29 9.11 1.29 2.03 0 4.02-0.29 5.92-1.06 5.8-2.35 9.02-8.5 13.82-12.53 7.82-6.56 18.93-6.93 29.15-6.99 29.43-0.16 58.86-0.32 88.3-0.48 19.82-0.11 42.85-1.83 54.08-18.17 9.97-14.51 5.52-35.27-5.59-48.94-17.2-21.17-58.01-62.29-80.52-76.38-95.76-59.98-191.5-119.95-287.25-179.92-31.56-19.77-63.6-39.92-88.37-67.73-67.55-75.81-141.3-154.28-218.01-221.74-71.68-63.04-169.69-100.48-263.41-104.71-77.36-3.47-153.29-27.03-225.5-53.56-33.45-12.3-57.92-43.89-85.39-66.65-30.81-25.55-62.85-49.63-95.95-72.12-14.52-9.86-39.73-22.68-42.79-41.09-3.38-20.39 14.15-35.62 4.27-59.44-7.96-19.2-24.03-34.86-43.42-42.33-8.94-3.44-16.9-4.93-24.21-4.93" fill="#5a8c2e"/><path d="m1871.9 2369.7s-14.19-13.41-16.33-26.31c-2.15-12.9-7.7-28.87-12.3-35.73-4.6-6.87-12.71-32.95-9.13-45.45 3.59-12.5 8.86-13.72 22.79-16.02s27.31 0.1 27.31 0.1 11.93 6.82 14.75 10.18c2.81 3.35 11.98 12.68 13.9 14.28 1.93 1.61 17.75 17.49 19.92 33.33 2.16 15.84-0.93 34.36-5.43 42.17s-20.2 29.07-31.51 29.3c-11.3 0.22-23.97-5.85-23.97-5.85" fill="#242B2E"/><path d="m2651.2 2052.6c0.68-3.71 12.44-21.85 12.44-21.85s221.28-36.36 229.67-38.02c8.34-1.68 19.83 2.06 19.83 2.06s23.54 11.58 29.92 18.98c6.36 7.46 13.03 18.43 14.1 24.16 1.08 5.68 13.81 19.14 16.35 24.83s11.61 24.28 11.61 24.28l19.18 11.63s17.56 14.98 25.08 17.42c7.52 2.46 31.4 38.53 31.4 38.53s-25.44 95.64-43.77 159.34c-7.48 26.03-13.8 46.71-16.68 53.38-9.98 23.12-35.4 114.52-56.27 118.51-20.8 3.95-31.49 5.33-35.74 10.8-4.19 5.5-74.1 1.65-81.62-0.8-7.53-2.45-26.68-11.08-35.06-13.81-8.37-2.72-26.58-5.25-50.49-20.36-23.9-15.11-96.01-20-119.3-32.5-23.26-12.43-65.94-88.31-48.76-150.09s30.36-88.78 49.59-104.49c19.28-15.69 49.49-17.05 60.56-13.45l2.67 0.81 0.9 0.3c9.55 2.87 17.58 4.31 17.58 4.31l-0.04-0.07c-0.05-1.66-1.04-27.76-3.82-31.47 0 0-5.03-6.68-11.46-15.57-7.69-10.52-17.41-24.23-22.94-33.36-10.1-16.82-15.64-29.87-14.93-33.5" fill="#363d4d"/><path d="m2663.7 2030.8s124.97-20.54 190.63-31.46c21.73-3.59 36.98-6.18 39.04-6.56 8.34-1.68 19.83 2.06 19.83 2.06s23.54 11.58 29.92 18.98c6.36 7.46 13.03 18.43 14.1 24.16 1.08 5.68 13.81 19.14 16.35 24.83s11.61 24.28 11.61 24.28l19.18 11.63s17.56 14.98 25.08 17.42c7.52 2.46 31.4 38.53 31.4 38.53s-3.6 13.41-8.97 33.52c-9.06 33.6-23.35 85.95-34.8 125.82-4.42 2.78-7.02 4.27-7.02 4.27s-86.24-26.07-109.81-40.6c-23.63-14.54-18.08-40.57-18.08-40.57l-52.08-16.94s-73.57-43.93-91.49-48.82c-17.99-4.86-34.14-4.73-34.14-4.73l-0.04-0.07c-0.05-1.66-1.04-27.76-3.82-31.47 0 0-24.22-32.14-34.4-48.93-10.1-16.82-15.64-29.87-14.93-33.5 0.68-3.71 12.44-21.85 12.44-21.85" fill="#323848"/><path d="m2670.7 2162.7c-7.73 0-15.92 1.74-24.38 5.51-7.52 1.49-14.19 4.7-20 9.08 1.14-0.1 15.73-1.61 24.36-1.61 3.18 0 5.55 0.2 6.14 0.76 2.23 2.13 20.13 7.08 31.84 10.36 1.79 0.49 3.53 0.7 5.18 0.7 8.71 0 15.28-5.77 15.97-6.4-0.19-0.25-0.38-0.5-0.57-0.74-10.07-11.01-23.41-17.66-38.54-17.66m-44.68 14.78c-3.4 2.53-6.52 5.44-9.42 8.6 4.53-3.68 8.6-7.69 9.42-8.6m104.93 86.61c0 9.8-0.45 19.47-1.28 28.73-0.49 0.13-0.98 0.26-1.46 0.38-4.55 36.03-19.25 63.96-36.03 84.57l-0.03 0.1c-6.01 7.37-12.28 13.79-18.45 19.32 4.07-3.04 36.63-28.02 46.09-54.21 4.69-13 8.17-30.67 9.88-50.16 0.83-9.26 1.28-18.93 1.28-28.73m-57.99 133.76c-2.39 2.12-4.76 4.1-7.09 5.95 2.48-1.59 4.85-3.55 7.09-5.95" fill="#232730"/><path d="m2650.7 2175.6c-8.63 0-23.22 1.51-24.36 1.61l-0.08 0.04-0.22 0.15c-0.82 0.91-4.89 4.92-9.42 8.6-9.93 10.88-16.77 24.54-20.86 35.46-3.36 9-6.67 19.07-9.26 27.31 4.83-0.36 9.84-0.9 15.1-1.69 49.28-7.4 124.52-15.9 124.52-15.9 2.46 13.69 3.56 26.58 3.56 38.68-0.01 8.1-0.52 15.85-1.45 23.26 0.48-0.12 0.97-0.25 1.46-0.38 0.83-9.26 1.28-18.93 1.28-28.73 0.01-13.86-0.87-27.94-2.77-41.4-0.19-1.36-0.4-2.7-0.65-4.02-0.01-0.01-0.02-0.01-0.03-0.02-5.01-17.11-11.42-29.13-17.69-37.55-0.69 0.63-7.26 6.4-15.97 6.4-1.65 0-3.39-0.21-5.18-0.7-11.71-3.28-29.61-8.23-31.84-10.36-0.59-0.56-2.96-0.76-6.14-0.76m76.84 43.1-0.61-0.44 0.59 0.31 0.02 0.13" fill="#171a1f"/><path d="m2027.6 2266.8s36.91-3.27 79.28-6.71c41.11-3.38 87.33-6.97 110-7.84 24.06-0.99 56.17 3.45 84.48 7.9 25.84 4.06 48.51 8.12 59.01 8.04 22.02-0.16 31.46-6.64 98.1-17.16 35.6-5.63 59.95-4.26 82.41-2.88 19.59 1.2 37.75 2.39 60.7-1.05 49.28-7.4 124.52-15.9 124.52-15.9 12.11 67.39-8.54 115.33-33.92 146.51l-0.03 0.1c-26.51 32.49-58.15 46.74-63.1 45.9-9.7-1.7-64.16-9.87-70.09-14.14-5.93-4.28-83.97-0.85-104.93-3.98-20.92-3.18-71.53 1.62-122.15 4.18-50.64 2.56-130.1-21.13-213.76-47.6-83.64-26.52-90.52-95.37-90.52-95.37" fill="#f1a377"/><path d="m2726.1 2231.2s-75.24 8.5-124.52 15.9c-11.29 1.69-21.42 2.27-31.13 2.27-10.03 0-19.62-0.61-29.57-1.22s-20.27-1.22-31.78-1.22c-14.47 0-30.8 0.96-50.63 4.1-66.64 10.52-76.08 17-98.1 17.16-0.09 0-0.19 0.01-0.29 0.01-10.63 0-33.12-4.03-58.72-8.05s-54.31-8.04-77.37-8.04c-2.44 0-4.81 0.04-7.11 0.14-22.26 0.86-67.21 4.33-107.75 7.65-0.75 0.07-1.51 0.13-2.25 0.19 1.59 8.6 4.61 13.75 4.61 13.75s89.02 2.61 135.57 9.5c46.56 6.89 78.99 18.32 106.32 18.43h0.15c27.42 0 110.33-24.45 110.33-24.45s48.91 23.6 51.56 24.46c0.97 0.31 14.22 0.61 31.49 0.61 30.18 0 72.6-0.92 83.03-4.35 9.27-3.04 34.15-11.93 53.83-11.93 15.14 0 27.19 5.26 26.68 22.49-0.62 20.66-9.7 47.82-18.27 69.11 20.22-24.84 37.44-60.33 37.48-107.83 0-12.1-1.1-24.99-3.56-38.68" fill="#df7653"/><path d="m2726.9 2218.3 0.59 0.31 0.02 0.13-0.61-0.44" fill="#f1a377"/><path d="m1920.5 2338.6s13.76-6.27 23.01-6.18c9.25 0.08 57.25-0.41 57.25-0.41s38.09 8.98 68.99 19.04c30.9 10.05 163.6 44.82 163.6 44.82s-61.17-40.18-56.39-68.4c4.8-28.21 56.39-75.14 56.39-75.14s-176.89 4.56-194.07 4.83c-17.18 0.26-36.71-1.21-53.93-6.82-17.21-5.59-36.8-11-54.26-11.79s-30.9 48.03-30.9 48.03l20.31 52.02" fill="#fff"/><path d="m2898.2 1992.3c-0.36 0-0.72 0.01-1.07 0.02 1.74 2.44 3.45 4.89 5.13 7.34 5.84 8.52 15.55 19.54 18.51 29.52 0.59 1.97 0.83 4.13 0.82 6.4-0.01 7.94-2.92 17.22-3.88 24.25-0.02 0.15-0.05 0.31-0.07 0.46l24.88 5.56s27.84 11.29 29.89 18.52c1.05 3.72-10.16 4.62-21.3 4.62-10.51 0-20.95-0.81-20.95-0.81l-32.84 22.24 79.55-3.75 9.18 7.79s-19.28 14.23-21.24 17.92c-1.83 3.6-22.89 22.26-12.45 22.26 0.66 0 1.44-0.07 2.35-0.22 13.83-2.4 24.61-6.02 29.12-6.02 0.55 0 1.01 0.06 1.37 0.18 3.29 1.06 26.1 20.97 26.1 20.97l-18.1 55.62 31.79-52.69 5.58 8.19c0.12-0.49 0.22-0.93 0.31-1.33 3.59-16.14-23.61-71.16-23.61-71.16l-4.76-9.63-0.69-1.41-16.63-10.09s-9.07-18.59-11.61-24.28-15.27-19.15-16.35-24.83c-1.07-5.73-7.74-16.7-14.1-24.16-6.38-7.4-29.92-18.98-29.92-18.98s-7.66-2.5-15.01-2.5" fill="#20242e"/><path d="m2657.6 2044.7-3.84 11.81 15.92 19.67s8.88 7.47 26.96 7.47c0.46 0 0.92 0 1.39-0.01-2.96-0.18-5.86-0.53-8.58-1.15-2.71-0.65-5.3-1.55-7.46-2.83-2.03-1.13-3.79-2.59-5.11-4.42-7.11-9.69-13.19-20.11-19.27-30.54h-0.01" fill="#20242e"/><path d="m2700.6 2135v0.01-0.01m0.01 0.02m0.01 0.01m-13.72 27.23c2.85 0.96 12.39 4.97 22.39 18.05 0.21 0.23 0.42 0.46 0.63 0.69 8.7 9.77 14.91 22.82 17.66 37.62 1.49 0.73 6.14 3.3 19.05 10.47l25.19 14.06s20.18-12.48 22.55-13.64c0.24-0.13 0.48-0.19 0.72-0.19 2.03 0 4.04 4.45 9.63 8.89 5.95 4.75 10.41 44.88 10.75 47.8-0.1-3.31-1.41-56.18-6.3-60.05-5.01-4.04-6.16-17.06-6.16-17.06s0.09-1.93-0.14-4.67c-22.89-13.11-53.53-30-64.25-32.93-17.04-4.61-32.43-4.73-34.01-4.73h-0.13s-8.03-1.44-17.58-4.31" fill="#232730"/><path d="m2689.1 2119.5c6.2 8.57 11.09 15.09 11.44 15.54v0.01c0.01 0 0.01 0.01 0.01 0.01 0 0.01 0.01 0.01 0.01 0.01 2.78 3.71 3.77 29.81 3.82 31.47l0.04 0.07h0.13c1.58 0 16.97 0.12 34.01 4.73 10.72 2.93 41.36 19.82 64.25 32.93-0.35-4.11-1.41-10.03-4.52-13.96-5.19-6.55-53.13-39.26-53.13-39.26s-25.3-22.88-31.36-26.79c-2.66-1.74-13.48-3.39-24.7-4.76" fill="#20242e"/><path d="m2709.2 2180.3c0.19 0.24 0.38 0.49 0.57 0.74 0.04-0.03 0.06-0.05 0.06-0.05-0.21-0.23-0.42-0.46-0.63-0.69" fill="#171a1f"/><path d="m2709.9 2181s-0.02 0.02-0.06 0.05c6.27 8.42 12.68 20.44 17.69 37.55 0.01 0.01 0.02 0.01 0.03 0.02-2.75-14.8-8.96-27.85-17.66-37.62" fill="#101215"/><path d="m2245.4 1694.4c5.34-7.22 7-11.08 12.63-12.7 4.47-1.3 11.4-1.16 24.74-0.04 29.97 2.43 175.77 26.97 219.88 42.8 44.18 15.84 127.8 69.42 142.98 76.76 15.17 7.4 45.4 27.02 52.35 31.22 6.9 4.18 113.62 85.78 158.63 117.07 18.6 12.9 32.94 31.63 45.62 50.11 5.84 8.52 15.55 19.54 18.51 29.52 2.64 8.83-1.82 21.61-3.06 30.65-0.3 2.18-0.92 4.79-2.97 5.53-1.02 0.38-1.83 0.14-2.66-0.11-0.53-0.16-1.06-0.31-1.66-0.31-1.34-0.02-2.6 0.63-3.9 1.02-3.06 0.95-6.23 1.49-9.47 1.73-6.5 0.51-13.05-0.21-19.39-1.45-1.59-0.34-3.22-0.7-4.82-0.87-4.28-0.34-8.48 0.7-12.72 1.31-4.49 0.65-7.23-0.13-11.36-1.3-4.36-1.18-10.23-0.05-14.62 0.46-5.21 0.53-10.42 1.42-15.57 2.31-16.31 2.78-32.64 5.61-48.96 8.38-16.18 2.77-32.44 5.55-48.84 6.43-8.57 0.43-21.25 1.76-31.29-0.52-2.71-0.65-5.3-1.55-7.46-2.83-2.03-1.13-3.79-2.59-5.11-4.42-15.31-20.86-25.81-45.08-41.96-65.51-16.59-21.04-77.83-83.44-83.27-87.62-5.47-4.24-31.51-32.22-55.07-39.42-23.49-7.18-93.84-28.09-132.13-46.93-38.34-18.81-143.21-72.97-143.21-72.97s14.54-55.32 24.16-68.3" fill="#f1a377"/><path d="m2266.8 1680.8c-3.83 0-6.61 0.29-8.8 0.93 3.29 9.33 9.03 16.36 10.58 17.73 4.11 3.74 73.55 15.75 73.55 15.75s99.9 8.07 152.87 25.32c52.98 17.24 87.23 49.88 87.23 49.88l8.06 20.21s9.69-2.54 22.54-2.54c9.73 0 21.28 1.45 31.81 6.57 24.5 11.85 31.91 27.96 44.05 38.71 12.13 10.8 60.19 40.1 114.45 77.32 54.33 37.19 104 88.51 104.67 98.51 0.64 9.93-12.25 10.65-32.68 21.58s-72.84 8.52-97.4 18.11c-22.54 8.77-85.32 10.49-95.77 10.72 2.16 1.28 4.75 2.18 7.46 2.83 4.35 0.99 9.18 1.3 13.97 1.3 6.27 0 12.46-0.54 17.32-0.78 16.4-0.88 32.66-3.66 48.84-6.43 16.32-2.77 32.65-5.6 48.96-8.38 5.15-0.89 10.36-1.78 15.57-2.31 2.98-0.34 6.65-0.98 10.06-0.98 1.61 0 3.16 0.14 4.56 0.52 3.1 0.88 5.41 1.54 8.27 1.54 0.95 0 1.97-0.08 3.09-0.24 3.66-0.53 7.29-1.38 10.98-1.38 0.58 0 1.16 0.03 1.74 0.07 1.6 0.17 3.23 0.53 4.82 0.87 4.92 0.96 9.98 1.62 15.04 1.62 1.45 0 2.9-0.06 4.35-0.17 3.24-0.24 6.41-0.78 9.47-1.73 1.28-0.39 2.53-1.02 3.85-1.02h0.05 0.04c0.58 0 1.11 0.16 1.62 0.31 0.52 0.16 1.03 0.31 1.59 0.31 0.34 0 0.69-0.05 1.07-0.2 2.05-0.74 2.67-3.35 2.97-5.53 0.96-7.03 3.87-16.31 3.88-24.25 0.01-2.27-0.23-4.43-0.82-6.4-2.96-9.98-12.67-21-18.51-29.52-1.68-2.45-3.39-4.9-5.13-7.34-11.42-16-24.36-31.58-40.49-42.77-45.01-31.29-151.73-112.89-158.63-117.07-6.95-4.2-37.18-23.82-52.35-31.22-15.18-7.34-98.8-60.92-142.98-76.76-44.11-15.83-189.91-40.37-219.88-42.8-6.81-0.57-11.94-0.89-15.94-0.89" fill="#df7653"/><path d="m2339.8 1823.4s-7.74-62.61-4.77-79.22 67.4-43.27 67.4-43.27-180.53-31.67-199.96-38c-19.42-6.32-43.41-15.1-55.09-27.21-11.69-12.1-22.13-35.51-23.78-60.45-1.64-24.96-45.48-16.27-54.96 33.85-9.48 50.14-0.19 77.08-0.19 77.08s5.12 17.29 18.83 26.15c13.72 8.85 19.75 11.3 25.35 13.62 5.59 2.3 28.45 16.09 28.45 16.09s50.36 14.78 64.74 20.1c14.38 5.31 126.29 57.32 133.98 61.26" fill="#fff"/><path d="m2109.7 1730.4s-19.15-29.67-19.13-47.72c0.02-18.06 8.41-34.86 11.43-42.66 3.03-7.8 7.96-16.94 15.59-17.87 7.63-0.94 13.47-5.38 13.47-5.38s0.26-7.28-0.48-9.31c-0.74-2.04-14.47-48.29-13.83-62.23 0.63-13.96-2.97-37.59-15.36-39.17-12.38-1.6-27.01 5.85-40.53 24.88-13.51 19.03-20.29 15.86-20.45 35.82-0.14 19.97 1.4 30.23 0.84 34.94-0.56 4.7-1.12 28.93-1.12 28.93s4.32 9.22 3.21 17.16c-1.12 7.92-3.28 34.08-3.12 36.57 0.16 2.5 16.77 26.45 16.77 26.45l31.52 12.7 21.19 6.89" fill="#242B2E"/><path d="m1893.6 2366s-7 7.64 5.05 9.05c12.05 1.4 24.51-14.07 24.51-14.07s10.68-12.15 15.03-20.99c4.34-8.84 10.84-24.29 10.84-24.29l-1.47-19.53-12.61-39.24-3.8-18.33s-41.7-2.35-49.18-0.39c-7.48 1.97-18.7 6.82-25.05 7.96s-3.49 25.72 0.4 34.79c3.87 9.08 36.28 85.04 36.28 85.04" fill="#242B2E"/><path d="m2994.5 2082.3 51.16 32.75s69.22 32.02 91.12 53.64c21.97 21.58 94.34 78.02 111.86 90.94 17.5 12.97 72.09 60.81 72.09 60.81l60.06 41.27 2.17 1.77 0.04 0.07 30.02 25.42 3.15 2.62 23.77 45.02s22.05 58.97 23.58 66.14c1.54 7.19 12.41 30.24 12.41 30.24s-0.76 0.89-1.95 2.3l-0.33 0.37c-4.23 4.83-12.96 14.61-15.34 15.52l-0.88 0.25c-2.51 0.72-8.92 2.17-14.96 3.48l-0.5 0.1c-6.76 1.48-13.06 2.76-13.06 2.76s-8.3 11.74-9.95 16.81c-1.63 5.02-5.03 18.95-14.37 28.74-9.25 9.76-18.58 19.54-20.25 19.53-1.69 0.06-30.62 25.72-40.27 36.48s-35.44 33.57-39.45 35.6c-4 2.04-12.66 6.45-12.66 6.45s-32.63 30.07-35.09 37.62-58.34-12.31-58.34-12.31-106.52-25.24-129.98-77.98-34.28-65.68-34.28-65.68l-25.65-27.33-7.28-8.45-37.43-13.31s-43.88-5.4-58.99-10.32c-15.1-4.91-33.73-7.63-33.73-7.63s31.85-39.75 43.53-44.84 33.97-29.04 40.45-40.29c6.4-11.28 31.91-120.45 39.54-135.27 7.62-14.77 32.61-100.18 36.17-116.26 3.59-16.14-23.61-71.16-23.61-71.16l-4.76-9.63-8.01-16.24" fill="#FFE14D"/><path d="m3354 2595.4s24.33-8.04 36.54-3.68c3.22 1.19 5.59 3.16 6.47 6.39 4.1 15.56 25.45 29.6 54.58 63.27 8.55 9.86 11.89 18.7 11.55 26.74-0.73 19.48-23.33 34.1-48.23 46.12-35.17 16.94-89.14 23.63-91.18 19.63-2.04-4.01-7.22-30.35-7.22-30.35s-4.71-12.42-9.57-20.69c-4.81-8.24-18.66-11.88-18.66-11.88-16.87-36.83 65.72-95.55 65.72-95.55" fill="#f1a377"/><path d="m3390.5 2591.7-22.38 20.92 35.09 15.36 14.21 14.66-17.31 4.11s-33.13 12.28-48.25 24.46c-15.1 12.12-23.39 51.13-23.39 51.13l0.02-0.01c9.78-22.04 34.96-49.55 34.96-49.55s18.36-5.32 34.17-9.33l0.08-0.04c8.24-2.13 15.79-3.96 19.54-4.4 2.74-0.37 5.6-0.58 8.55-0.58 8.75 0 18.37 1.82 28.7 6.63 0.03 0.01 0.07 0.03 0.1 0.04-0.93-1.23-1.94-2.48-3.04-3.74-29.13-33.67-50.48-47.71-54.58-63.27-0.88-3.23-3.25-5.2-6.47-6.39" fill="#df7653"/><path d="m3340.2 2618.9s-13.59 6.91-20.35 14.07-17.32 18.39-20.19 24.17c-2.86 5.78-11.49 21.7-8.2 25.22 3.28 3.54-2.66 6.47 9.57 14.42-6.01 7.94-19.11 8.1-19.11 8.1s-17.23-14.47-8.08-41.06c9.14-26.58 30.59-59.02 30.59-59.02l24.02 7.81 1.86-29.94s23.34-11.14 40.09-8.14c16.77 2.99 30.95 17.84 33.99 21.65 3.03 3.81 7.47 23.57 7.47 23.57s-16.85-10.61-31.05-13.75c-14.21-3.15-40.61 12.9-40.61 12.9" fill="#242B2E"/><path d="m3326.3 2728c7.37-22.66 37.15-55.19 37.15-55.19s18.36-5.32 34.17-9.33l0.08-0.04c8.24-2.13 15.79-3.96 19.54-4.4 10.9-1.46 23.45-0.38 37.25 6.05 13.83 6.37 38.46 30.68 47.6 42.41 1.67 2.08 3.48 4.94 5.41 8.24l-0.02 0.06c4.55 7.77 9.59 17.96 13.34 25.93l0.05 0.09 0.02 0.14c3.47 7.41 5.9 12.87 5.9 12.87s5.56 13.31 10.27 28.8c3.67 11.7 6.82 24.61 6.85 33.97 0.04 13.64-11.48 33.82-20 46.89-5.05 7.7-9.04 12.95-9.04 12.95s-53.21 27.39-68.29 28.76c-2.07 0.2-4.8-0.22-7.98-1.12l-0.12-0.04c-12.47-3.79-32.02-15.56-49.06-29.74-9.72-7.91-18.51-16.64-24.86-25.05-9.25-12.24-17.25-28.48-23.24-42.52-7.33-17.09-11.68-31.07-11.68-31.07s-8.3-20.07-5.33-40.28c0.45-2.79 1.09-5.6 1.99-8.38" fill="#f1a377"/><path d="m3324.7 2805.9s1.29-12.31-0.38-18.09c-1.67-5.76-2.77-17.81-2.77-17.81s3.08-5.81 4.66-4.49c1.6 1.31 10.37 16.7 10.37 16.7s1.98 11.91 4.32 14.97 6.32 9.01 6.77 13.3c0.45 4.3-1.54 13.77-4.23 16.18-2.7 2.42-12.05 2.3-15.19-6.66-3.14-8.95-3.55-14.1-3.55-14.1" fill="#f9b289"/><path d="m3485.7 2857.9s34.15-9.79 36.05-17.09c1.88-7.28 2.83-25.15-0.67-31.84-3.5-6.68-0.31-34.46-0.31-34.46s-4.75-14.91-17.67-30.39-20.46-33.39-29.71-28.04c-9.26 5.34-19.68 23.24-19.68 23.24l2.74 16.35c0.28 0.09 3.58-1.58 7.79-3.25 5.21-2.08 11.82-4.15 15.79-2.86 7.18 2.34 20.54 10.02 20.54 10.02s12.51 10.34 12.64 12.47c0.15 2.14-3.07 31.27-7.1 35.96s-48.29 14.92-48.29 14.92-8.76-15.43-10.23-17.97-9.07-18.95-9.07-18.95 5.63-3.22-1.5-4.4-18.36 8.95-18.36 8.95l14.77 9.79 10.1 17.09 7.23 9.88-37.86 18.16-2.43 29.28 18.03 10.05s50.09-22.93 57.2-26.91" fill="#f9b289"/><path d="m3425.8 2658.4c-2.95 0-5.81 0.21-8.55 0.58-3.75 0.44-11.3 2.27-19.54 4.4l-0.08 0.04 37.12 7.07 38.13 27.98s24.18 37.55 26.34 40.72c0.08 0.1 0.15 0.2 0.23 0.3 1.96 2.24 20.27 19.09 23.13 24.33 0.51 0.91 1.58 2.53 3.05 4.61l0.45-3.87-5.18-22.66-0.02-0.14-0.05-0.09c-0.94-1.17-15.02-18.72-14.53-20.22 0.21-0.68 0.68-3.13 1.19-5.71l0.02-0.06c-1.93-3.3-3.74-6.16-5.41-8.24-3.36-4.31-8.82-10.33-15.07-16.53-8.57-8.52-18.63-17.38-26.79-22.65-2.05-1.32-3.98-2.42-5.74-3.23-10.33-4.81-19.95-6.63-28.7-6.63" fill="#df7653"/><path d="m3499.2 2739.2c0.05 0.08 0.09 0.13 0.12 0.17 0.02 0.03 0.06 0.08 0.11 0.13-0.08-0.1-0.15-0.2-0.23-0.3" fill="#ee805e"/><path d="m3324.3 2736.3c-0.45 3.08-0.65 6.15-0.64 9.16 0 7.5 1.2 14.53 2.53 20.01l0.03 0.03c1.6 1.31 10.37 16.7 10.37 16.7s1.98 11.91 4.32 14.97 6.3 8.99 6.76 13.27l4.1 7.16 20.02 24.49s11.35 4.97 20.2 14.93 11.95 18.52 18.16 23.88c6.14 5.34 36.07 9.68 36.07 9.68s26.68-8.9 33.44-16.72c6.69-7.84 7.94-12.91 21.34-16.91 1.02-0.27 2-0.62 2.93-0.98l-4.28-2.66c-7.47 2.7-13.95 4.56-13.95 4.56-7.11 3.98-57.2 26.91-57.2 26.91l-18.03-10.05 2.43-29.28 37.86-18.16-7.23-9.88-0.6-1c-6.01-4.16-12.33-8.36-16.96-11.01-12.03-6.79-43.91-21.77-43.91-21.77s-48.85-32.2-54.67-42.45c-0.73-1.24-1.78-2.93-3.09-4.88" fill="#df7653"/><path d="m3326.2 2765.5c1.63 6.73 3.44 11.11 3.44 11.11s4.35 13.98 11.68 31.07c1.12-2.43 2.24-4.42 2.24-4.42l4.12 7.21c-0.46-4.28-4.42-10.21-6.76-13.27s-4.32-14.97-4.32-14.97-8.77-15.39-10.37-16.7l-0.03-0.03" fill="#ee805e"/><path d="m3443 2816.4 0.6 1 7.23 9.88-37.86 18.16-2.43 29.28 18.03 10.05s50.09-22.93 57.2-26.91c0 0 6.48-1.86 13.95-4.56l-38.54-23.91s-8.69-6.43-18.18-12.99" fill="#ee805e"/><path d="m3090.1 2741.5s5.39-18.29 2.67-25.3c-2.74-7.01-11.51-39.93-11.51-39.93l-12.75-27.54 69.91 12.74s38.9 7.09 55.01 12.33 34.44 15.65 34.44 15.65 51.47 23.81 47.14 28.21c-4.33 4.39-18.15 21.33-18.15 21.33l-11.24 20.84s-68.69 67.3-96.33 64.98-34.29-41.78-41.22-51.28-23.43-22.1-17.97-32.03" fill="#FFE14D"/><path d="m3382.9 2363.5 14.67 6.44s23.02 6.89 42.42 10.94c7 1.48 13.48 2.51 18.28 2.73 18.09 0.88 108.57 87.12 108.57 87.12l-38.42 51.52s-18.76 4.45-24.76 5.84c-5.99 1.39-14.01 7.14-14.01 7.14l-15.73 0.08-0.33 0.37-15.34 15.52-0.88 0.25-14.96 3.48-0.5 0.1 3.66-68.11s-20.83-60.22-31.63-73.23c-4.76-5.69-11.49-16.23-17.39-26.24l-0.06-0.02c-6.98-11.82-12.88-22.63-13.55-23.86l-0.04-0.07" fill="#FFE14D"/><path d="m3341.3 2807.7c1.12-2.43 2.24-4.42 2.24-4.42l8.22 14.37 20.02 24.49s11.35 4.97 20.2 14.93 11.95 18.52 18.16 23.88c6.14 5.34 36.07 9.68 36.07 9.68s26.68-8.9 33.44-16.72c6.69-7.84 7.94-12.91 21.34-16.91 1.02-0.27 2-0.62 2.93-0.98 11.96-4.13 20.71-11.3 20.71-11.3s8.31-29.44 7.02-38.21c-1.35-8.79-6.98-29.87-6.98-29.87l0.93-8.18 0.45-3.87-5.18-22.66-0.02-0.14-0.05-0.09c-0.94-1.17-15.02-18.72-14.53-20.22 0.21-0.68 0.68-3.13 1.19-5.71l0.02-0.06c0.64-3.39 1.23-6.87 1.23-6.87s10.22 3.32 10.74 6.83c0.53 3.51 25.03 43.63 25.03 43.63s27.26 33.06 21.83 66.38c-5.37 33.33-35.16 68.4-67.79 85.11-8.26 4.19-17.19 7.23-26.42 9.1-27.31 5.69-56.8 1.64-76.56-9.48-14.88-8.31-30.4-35.75-41.42-58.97-8.54-18.29-14.3-33.87-14.66-35.65-0.44-2.15 0.69-5.39 1.84-8.09" fill="#613422"/><path d="m2994.5 2082.3 8.01 16.24 38.17 37.74s37.83 12.31 44.43 22.81c6.6 10.51 25.01 30.72 31.14 40.21 6.14 9.48 21.54 26.25 23.57 30.25 2.04 4.01 89.65 60.85 89.65 60.85l-21.49-49.56 122.54 100.83 66.03 45.74c-6.98-11.82-12.88-22.63-13.55-23.86l-0.04-0.07-2.17-1.77-60.06-41.27s-54.59-47.84-72.09-60.81c-17.52-12.92-89.89-69.36-111.86-90.94-21.9-21.62-91.12-53.64-91.12-53.64l-51.16-32.75" fill="#FFE14D"/><path d="m3382.9 2363.5 0.04 0.07c0.67 1.23 6.57 12.04 13.55 23.86l0.06 0.02 16.41 1.54 8.76 0.78 18.27-8.89c-19.4-4.05-42.42-10.94-42.42-10.94l-14.67-6.44" fill="#FFE14D"/><path d="m3515.5 2734.9s11.58 3.37 12.54 0.84c0.95-2.52 0.79-12.06 0.79-12.06s-17.74-23.1-21.17-27.97c-3.43-4.88-7.49-11.64-12.46-12.41-4.96-0.78-8.64 2.19-8.64 2.19s0.73 6.09 4.98 11.65c4.24 5.56 7.17 11.31 10.34 15.06 3.16 3.74 13.62 22.7 13.62 22.7" fill="#f9b289"/><path d="m3453.3 2383.1s46.87 4.22 64.72 5.83c17.83 1.66 53.59 14.97 74.89 26.5 21.32 11.49 96.97 47.4 105.41 53.49 8.45 6.09 33.64 35.2 49.86 72.62 16.23 37.43 34.31 124.36 45.57 160.17 11.33 35.83 21.43 60.03 26.1 68.63 4.75 8.63 28.14 16.24 28.14 16.24l30.57 22.25 23.93 4.71s17.63 7.41 18.85 8.21c1.21 0.79 26.88 9.15 29.96 11.82 0.99 0.85 1.36 1.98 1.35 3.04 0.04 2.35-1.52 4.66-1.52 4.66s-1.02 2.53-7.34 2.62c-6.28 0.03-22.61-4.22-22.61-4.22s-34.83-4.66-35.98-4.42c-1.08 0.24-2.32 4.65-2.32 4.65s15.19 11.03 16.15 11.34c0.91 0.29 17.87 13.1 23.66 16.45s14.63 12.71 18.68 16.3c2.16 1.98 2.42 4.47 0.58 6.01-1.58 1.36-4.72 2-9.52 0.91-10.28-2.28-23.18-10.89-30.49-15.34-7.3-4.45-26.76-17.73-26.76-17.73l-5.47 2.63-2.15 6.58 4.14 5.76c0.55 0.38 33.89 35.29 36.68 37.6 2.77 2.37 10.89 11.3 9.54 16.27-0.23 0.93-0.85 1.59-1.76 2.1-3.82 2.5-12.42 1.63-12.42 1.63l-33.93-28.54-26-17.69-7.48 7.59-3.11 3.2 2.85 6.27 13.62 29.76s14.85 19.66 13.36 26.93c-1.54 7.19-9.43 8.43-16.34 0.1s-22.85-26.69-22.85-26.69-20.87-43.07-23.17-49.3c-2.41-6.19-39.53-38.32-42.02-49.96-2.48-11.7-22.04-69.65-33.9-94.15-11.87-24.51-90.98-175.02-93.31-179.98-2.29-4.89-7.26-9.32-13.23-12.32-5.94-3.08-100.72-19.43-112.11-31.48 0 0-21.9-21.37-25.24-32.88-3.34-11.5-17.23-40.68-21.45-45.8l-0.18-0.26-0.04-0.08c-4.3-5.07-15.07-11.58-12.23-24.22 2.9-12.82 6.32-27.81 6.32-27.81" fill="#f1a377"/><path d="m3762.1 2831c5.43-10.74 13.68-25.02 23.24-25.25 9.51-0.25 22.12 7.2 22.12 7.2s9.72 10.38 10.85 17.16c1.14 6.79-3.19 37.12-3.19 37.12l-16.42 16.37-1.4 12.31s6.65 16.93 8.48 22.8c1.81 5.94-5.65 16.54-8.03 19.57-0.59 0.75-1.55 1.24-2.63 1.49l-0.08 0.04c-3.37 0.7-8.37-1.19-10.66-7.89-3.13-8.89-8.53-32.11-9.3-35.7-0.77-3.58-13.04-32.64-13.52-40.6-0.49-7.92-4.97-13.86 0.54-24.62" fill="#f1a377"/><path d="m3882.9 2839.9 7.37 9.42 18.22 13.41 21.97 15.83 11.51 11.44c0.82-0.69 1.22-1.56 1.23-2.49 0-1.17-0.61-2.42-1.81-3.52-4.05-3.59-12.89-12.95-18.68-16.3s-22.75-16.16-23.66-16.45c-0.96-0.31-16.15-11.34-16.15-11.34" fill="#df7653"/><path d="m3869.7 2860.5-5.05 7.11-6.26 2.58 14.04 10.85 23.51 21.41 20.21 26.36c0.91-0.51 1.53-1.17 1.76-2.1 0.1-0.37 0.15-0.76 0.15-1.17 0.02-5.09-7.12-12.9-9.69-15.1-2.79-2.31-36.13-37.22-36.68-37.6l-4.14-5.76 2.15-6.58" fill="#df7653"/><path d="m3836.1 2901.3-0.24 10.15 11.35 25.27 15.87 21.27c0.07-0.34 0.1-0.71 0.1-1.1 0.03-7.97-13.46-25.83-13.46-25.83l-13.62-29.76" fill="#df7653"/><path d="m3453.3 2383.1s0 0.01-0.01 0.03c-0.19 0.83-3.49 15.33-6.31 27.78-0.32 1.43-0.47 2.78-0.47 4.06-0.01 10.03 8.89 15.66 12.7 20.16-1.26-10.3-0.99-29.41 17.81-29.41 0.51 0 1.04 0.01 1.58 0.04 27.65 1.45 61.65 15.05 86.58 28.18 24.99 13.14 68.34 33.93 68.34 33.93s39.15 8 62.16 27.05c23.05 19.07 51.61 86.55 63.9 125.77 12.3 39.22 38.21 109.87 41.15 125.05 3.03 15.15 7.71 28.91 6.25 33.37-1.47 4.53 8.58 8.34 8.58 8.34s3.31-1.2 8.88-1.2c5.38 0 12.85 1.12 21.45 5.53 17.53 8.98 29.94 19.7 29.94 19.7s11.06 3.2 14.38 4.68c3.25 1.53 50.93 16.57 50.93 16.57l11.51 3.88v-0.05c0-1.05-0.38-2.15-1.35-2.99-3.08-2.67-28.75-11.03-29.96-11.82-1.22-0.8-18.85-8.21-18.85-8.21l-23.93-4.71-30.57-22.25s-23.39-7.61-28.14-16.24c-4.67-8.6-14.77-32.8-26.1-68.63-10.05-31.98-25.56-104.74-40.31-146.59-1.77-5.01-3.52-9.57-5.26-13.58-4.74-10.95-10.26-21.19-15.9-30.35-13.63-22.14-27.98-37.96-33.96-42.27-8.44-6.09-84.09-42-105.41-53.49-21.3-11.53-57.06-24.84-74.89-26.5-17.85-1.61-64.72-5.83-64.72-5.83" fill="#df7653"/><path d="m3807.4 2813c-1.85 1.6 0.01 16.38 0.8 25.05 0.82 8.55 0.5 7.91-5.72 17.59-6.22 9.66-14 14.68-15.27 22.89-1.26 8.2 12.34 39.9 13.46 47.55 0.96 6.05-3.68 11.7-5.61 13.74 1.08-0.25 2.04-0.74 2.63-1.49 2.13-2.71 8.32-11.48 8.31-17.55 0-0.71-0.09-1.39-0.28-2.02-1.83-5.87-8.48-22.8-8.48-22.8l1.4-12.31 16.42-16.37s3.39-23.75 3.38-33.92c0-1.32-0.06-2.42-0.19-3.2-1.13-6.78-10.85-17.16-10.85-17.16" fill="#df7653"/><path d="m3104.4 2719.5c3.14-4.52 9.47-11.01 37.77-20.98 28.32-10.03 76.02 23.07 78.91 25.68s29.52 40.08 41.32 55.15c11.78 15.12 30.18 60 37.97 73.83 7.76 13.76 15.02 12.37 41.38 28.9 26.36 16.54 132.84 85.2 169 105.71 36.09 20.51 39.18 17.57 55.93 21.75 16.79 4.27 41.32 12.45 49.53 17.2 8.27 4.76 28.73 4.93 28.73 4.93s25.16 0.31 30.78 2.14c5.68 1.85 23.46 4.89 27.63 6.25 1.52 0.5 2.44 1.93 2.8 3.72 0.63 3.01-0.25 6.94-2.25 8.16-3.17 1.91-18.77 3.04-18.77 3.04s-11.39 0.31-20.76-0.88c-9.44-1.2-18.22 0.15-23.06 1.45-4.85 1.37-15.74 15.13-15.74 15.13l-1.47 8.4-1.77 10.39 8.99 16.08s34.52 31.29 36.2 33.1c1.68 1.82 22.4 22.33 18.92 29.15-0.84 1.53-1.84 2.54-3.04 3.15-3.82 2.1-9.06-0.27-11.12-1.95-2.65-2.13-43.16-36.76-43.39-37.5l-5.97-3.42-11.67 9.57 2.75 7.17 0.04 0.08 16.68 43.99s6.23 24.4 3.86 27.78l-0.34 0.42c-2.79 3.04-12.13 3.21-13.35 1.41-1.32-1.91-11.38-24.16-11.38-24.16l-8.07-18.13-8.17-15.35 5.4 58.35s-1.29 4-2.85 7.1c-0.81 1.67-1.68 3.13-2.46 3.48-2.19 0.95-7.67-0.64-9.06-2.95-1.24-2.15-4.63-15.15-5.11-16.77l-0.02-0.15s-1.57 1.57-3.14 3.32c-1.66 1.81-8.13 1.77-8.13 1.77s-3.02-0.98-5.06-4.38c-2.05-3.34-6.35-23.99-6.35-23.99l-6.03-44.32c-0.06-0.63-0.9-14.06-1.13-15.8-0.29-1.77-17.37-39.07-21.08-44.28-3.79-5.18-5.35-6.76-14.53-12.62-9.11-5.91-44.61-22.07-94.74-42.53-50.12-20.51-137.35-53.92-156.55-64.31-19.12-10.43-45.97-37.15-59.32-57.73-13.33-20.64-45.91-64.26-68.48-96.12-9.54-13.4-16.36-27.98-20.96-40.31-6.51-16.95-8.91-29.69-8.91-29.69s-3.51-14.9-0.36-19.43" fill="#f1a377"/><path d="m3614 3144.9 6.99 33.95 8.2 19.77 5.01 18.47 0.34-0.42c0.38-0.54 0.54-1.62 0.54-3.05-0.01-7.52-4.4-24.73-4.4-24.73l-16.68-43.99" fill="#df7653"/><path d="m3624.1 3079-4.65 14.93 11.9 18.43 32.84 27.41 19.9 26.11-0.69 4.99c1.2-0.61 2.2-1.62 3.04-3.15 0.27-0.54 0.4-1.15 0.39-1.84-0.03-8.07-17.76-25.63-19.31-27.31-1.68-1.81-36.2-33.1-36.2-33.1l-8.99-16.08 1.77-10.39" fill="#df7653"/><path d="m3590.6 3141.4-3.1 14.43 4.32 33.15 3.95 37.3c1.56-3.1 2.85-7.1 2.85-7.1l-3.24-35.03-2.16-23.32-2.62-19.43" fill="#df7653"/><path d="m3556 3037-9.47 3.61 3.84 8.74s2.53 3.51 6.32 3.51c0.43 0 0.88-0.05 1.35-0.15 0.66-0.16 1.29-0.23 1.89-0.23 3.47 0 5.79 2.26 5.79 2.26l1.04 23.73s2.65 22.64 3.8 25.49c1.2 2.86 2.89 16.77 2.89 16.77l-3.49 18.52 1.61 2.66-0.5 16.94 0.01 35.89 4.88 18.48c1.57-1.75 3.14-3.32 3.14-3.32 0.07-12.93-2.43-59.25-2.43-59.25l4.33-14.5s-1.53-36.37-1.81-41.88c-0.32-5.58 2.6-35.1 2.6-35.1s-13.69-19.09-14.96-19.91c-1.28-0.81-10.83-2.26-10.83-2.26" fill="#df7653"/><path d="m3154.1 2696.6c-4.22 0-8.26 0.58-11.97 1.89-28.3 9.97-34.63 16.46-37.77 20.98-0.97 1.4-1.31 3.78-1.31 6.41-0.01 5.89 1.67 13.02 1.67 13.02s2.4 12.74 8.91 29.69c0.03-2.98 0.31-33.57 2.17-39.31 1.97-6.05 25.58-8.38 25.58-8.38s28.86 8.86 43.42 13.59c14.63 4.77 28.38 7.03 28.38 7.03l37.53 51.18 22.23 45.65s-12.74 1.99-14.48 5.31c-4.93 9.4 18.75 26.16 18.75 26.16s19.12 1.21 72.58 31.97 114.89 73.41 139.09 90.23c24.23 16.91 41.77 21.35 41.77 21.35s23.79 1.6 40.15 5.32c16.29 3.76 40.66 20.04 52.45 20.95 1.1 0.08 2.4 0.12 3.84 0.12 14.02 0 41.99-3.59 41.99-3.59l34.08 8.22 2.95-0.64c-0.36-1.79-1.28-3.22-2.8-3.72-4.17-1.36-21.95-4.4-27.63-6.25-5.62-1.83-30.78-2.14-30.78-2.14s-20.46-0.17-28.73-4.93c-3.99-2.31-11.84-5.43-20.78-8.51-9.45-3.27-20.12-6.49-28.75-8.69-16.75-4.18-19.84-1.24-55.93-21.75-6.12-3.47-14.26-8.32-23.68-14.06-8.98-5.48-19.12-11.77-29.81-18.45-10.38-6.49-21.27-13.35-32.09-20.2-22.5-14.23-44.68-28.38-61.32-38.98-9.5-6.05-17.19-10.94-22.1-14.02-3.69-2.31-7.01-4.28-10-5.98-18.4-10.46-24.71-11.09-31.38-22.92-3.19-5.66-8.15-16.52-13.72-28.42-7.4-15.82-15.85-33.48-22.58-43.14-0.57-0.82-1.13-1.58-1.67-2.27-11.8-15.07-38.43-52.54-41.32-55.15-2.52-2.26-38.87-27.57-66.94-27.57" fill="#df7653"/><path d="m3938.5 3213.1 58.63-56.99s-12.68-62.9-17.01-74.03l-4.35-11.12s-72.7-22.04-76.4-22.5c-3.71-0.47 3.16-0.25-0.89-0.27-4.05-0.03-21.28 14.2-37.74 32-16.44 17.79-22.37 26.07-22.37 26.07s-0.92 20.54 6.68 45.15c7.61 24.61 12.95 35.52 12.95 35.52s15.21 14.36 80.5 26.17" fill="#deddb9"/><path d="m3977.6 3083.1c3.85 9.86 14.67 62.64 16.59 72.13l-56.55 54.97c-18.59-3.42-34.81-7.36-48.23-11.72-19.82-6.46-27.51-11.93-29.16-13.22-1.12-2.41-6.02-13.44-12.57-34.62-6.54-21.17-6.64-39.42-6.57-43.41 1.71-2.28 8.11-10.5 21.67-25.16 16.03-17.34 31.32-29.69 35.34-31.02l0.93 0.13c2.99 0.46 45.83 13.29 74.7 22.03l3.85 9.89" fill="#ebeac3"/><path d="m4067.4 3178.5s13.87-10.3 24.58-22.67c10.77-12.25 22.54-33.16 22.54-33.16s1.48 0.76 3.58 1.92c5.36 2.89 15.16 8.28 16.9 9.71l2.32 1.99s1.43 4.39 1.15 13.18c-0.69 3.88-1.53 7.62-2.5 11.51-9.01 35.28-27.72 65.49-52.69 88.5-3.09 1-6.19 1.71-8.98 1.47-3.45-0.26-7.36-1.15-11.08-2.07-6.5-1.74-12.11-3.85-12.11-3.85l0.45-0.53 0.45-0.51 0.43-0.73s1.16-1.81 2.76-5.21c0.9-1.91 1.92-4.15 2.93-6.97 0.74-1.67 1.35-3.58 2-5.56 3.72-10.83 7.25-25.82 7.24-44.27 0.01-1.8 0.03-2.75 0.03-2.75" fill="#c3bf9c"/><path d="m4116.8 3126.9c8.59 4.63 15.37 8.5 16.49 9.43l1.61 1.39c0.36 1.48 1.06 5.36 0.86 11.59-0.63 3.41-1.46 7.1-2.41 10.92-8.54 33.45-26.33 63.44-51.45 86.75-2.1 0.66-4.93 1.39-7.35 1.18-3.23-0.25-7.03-1.11-10.65-2.01-2.49-0.66-4.89-1.4-6.86-2.04l-1.65-0.55c0.46-0.78 1.3-2.32 2.29-4.45 0.94-1.94 1.99-4.27 3.03-7.2 0.71-1.58 1.35-3.55 2.03-5.63 4.9-14.27 7.38-29.45 7.37-45.11l0.03-1.38c3.5-2.71 14.75-11.67 23.92-22.26 8.81-10.03 18.13-25.46 21.53-31.3l1.21 0.67" fill="#cecaa4"/><path d="m3939.1 3291.7s12.63-5.64 22.11-12.76c9.41-7.16 12.43-13.54 12.43-13.54s22.27 0.85 49.79-7.68c10.32-3.23 16.96-6.03 20.79-8.13 1.66-0.99 3.07-1.78 4.15-2.47l0.74-0.52 1.72-1.45 0.26-0.2s5.61 2.11 12.11 3.85c3.72 0.92 7.63 1.81 11.08 2.07 2.79 0.24 5.89-0.47 8.98-1.47-35.24 32.28-82.66 50.28-132.12 47.56l-0.37-0.03-0.78-0.25c-8.19-2.09-10.89-4.98-10.89-4.98" fill="#dddaae"/><path d="m4074.3 3253.6c-34.45 28.33-78.75 43.07-122.96 40.64l-0.64-0.2c-0.95-0.24-1.83-0.5-2.64-0.76-1.29-0.42-2.37-0.86-3.28-1.27 4.63-2.3 11.96-6.27 18.12-10.9 7.12-5.43 10.81-10.48 12.36-12.96 5.72 0.03 25.34-0.48 49.02-7.82 11.66-3.66 18.02-6.56 21.3-8.35l4.57-2.73 1.53-1.2c0.9 0.31 2.17 0.75 3.68 1.25 2.04 0.66 4.54 1.42 7.19 2.13 3.63 0.9 7.79 1.87 11.57 2.16l0.18 0.01" fill="#eae7b7"/><path d="m3938.5 3213.1c-65.28-11.81-80.5-26.17-80.5-26.17l-7.36 8.81c-7.38 8.81-24.46 22.98-24.46 22.98s3.7 11.51 15.52 27.03c11.81 15.54 23.45 22.61 23.45 22.61s1.87 3.88 29.3 14.33c27.44 10.44 44.6 9.09 44.6 9.09s12.66-5.63 22.11-12.78c9.46-7.14 12.51-13.53 12.51-13.53l-12.41-15.09c-12.4-15.09-22.76-37.28-22.76-37.28" fill="#ebe9c0"/><path d="m3936.7 3215.5c2.42 5 11.6 23.31 22.52 36.58l11.19 13.62c-1.4 2.15-4.69 6.46-10.84 11.1-8.11 6.14-18.8 11.2-21.1 12.25-2.53 0.1-15.56 0.2-35.29-6.23-2.46-0.8-5.03-1.7-7.7-2.71-24.45-9.31-27.91-13.18-28.05-13.33l-0.35-0.72-0.46-0.06c-0.11-0.07-11.38-7.04-22.7-21.93-8.78-11.54-12.98-20.86-14.45-24.53 4.36-3.69 17.08-14.62 23.31-22.08l5.71-6.82c3.68 2.51 12.25 7.43 29.26 12.96 13.65 4.44 30.11 8.44 48.95 11.9" fill="#f6f4ca"/><path d="m3792.3 3060.2c-1.76 9.76-0.25 32.45-0.25 32.45l1.75 1.05c1.38 0.58 3.83 1.44 8.17 2.68 11.02 3.16 36.42 9.84 36.42 9.84v0.06-0.06s5.93-8.28 22.37-26.07c16.29-17.61 33.33-31.74 37.61-32.01h0.13c-0.04-0.16-3.26-14.04-1.6-34.61 1.68-20.71 5.46-33.54 5.46-33.54l-11.76-3.7c-11.78-3.7-31.56-1.92-31.56-1.92s-18.02 12.44-30.7 23.54c-12.66 11.1-24.38 32.13-24.38 32.13s-9.91 20.4-11.66 30.16" fill="#d4d4b2"/><path d="m3899.1 2981.8c-1.19 4.77-3.61 15.89-4.88 31.49-1.28 15.93 0.31 28.02 1.18 33.01-8.52 3.97-25.68 20.17-36.6 31.99-12.61 13.63-19.04 21.68-21.44 24.83-5.96-1.58-25.36-6.71-34.59-9.37-1.84-0.53-3.33-0.98-4.55-1.38-1.53-0.49-2.59-0.89-3.32-1.19l-0.17-0.11c-0.28-5.02-1.15-22.43 0.28-30.4 1.69-9.27 11.34-29.26 11.43-29.46 0.05-0.07 11.58-20.6 23.74-31.26 11.12-9.74 26.62-20.69 29.84-22.93 3.58-0.27 19.9-1.26 29.8 1.86l9.28 2.92" fill="#dfdeba"/><path d="m3980.1 3082.1c4.34 11.13 17.01 74.03 17.01 74.03s4.54 0.92 33.18 10.34c28.66 9.42 37.06 12.03 37.06 12.03s13.84-10.32 24.61-22.64c10.76-12.3 22.51-33.2 22.51-33.2s0.04-13.54-4.89-35.02c-4.93-21.49-13.61-40.88-13.61-40.88s-9.88-6.27-23.32-12.55c-13.45-6.28-43.47-15.68-43.47-15.68s-6.81 7.76-29.15 28.77c-22.34 21-24.28 23.68-24.28 23.68l4.35 11.12" fill="#d4d4b2"/><path d="m4034.2 3023c9.87 3.21 27.83 9.26 37.36 13.71 11.11 5.19 19.85 10.42 22.31 11.94 1.62 3.76 8.84 21 13.11 39.61 4.18 18.21 4.74 30.72 4.82 33.72-2.05 3.57-12.41 21.34-21.83 32.1-8.72 9.98-19.64 18.74-23.09 21.42-2.13-0.67-7.01-2.24-16.12-5.2l-25.97-8.5c-15.62-5.08-22.46-7.09-25.29-7.85-2.09-10.28-12.78-62.49-16.8-72.81l-3.73-9.57c1.92-2.05 7.53-7.74 22.98-22.27 17.36-16.31 25.34-24.62 28.13-27.63l4.12 1.33" fill="#dfdeba"/><path d="m3987.8 2964.5s2.18-4.63 4.82-9.23c2.22-3.57 4.74-7.23 6.75-8.4l0.69-0.34 1.02-0.53 1.01-0.44c1.48-0.76 3.01-1.31 4.3-1.76 1.08-0.4 2.28-0.87 3.66-1.29 0 0 46.59 20.04 54.13 25.65 7.66 5.54 36.02 27.29 47 53.12 0 0-0.89 4.2-4.46 11.07-3.41 6.33-9.84 13.51-10.62 14.4l-0.1 0.06s-9.9-6.28-23.33-12.56-43.49-15.78-43.49-15.78-7.18-15.52-24.33-34.76c-17.05-19.21-17.05-19.21-17.05-19.21" fill="#c3bf9c"/><path d="m4009.9 2945.4c13.55 5.84 46.82 20.59 52.65 24.92 8.08 5.85 34.91 26.6 45.76 51.17-0.43 1.45-1.55 4.85-4.01 9.58-1.26 2.34-3.81 6.33-8.81 12.21-3.55-2.14-11.58-6.8-21.67-11.52-10.53-4.92-31.14-11.8-39.52-14.52l-3.19-1.03c-1.96-3.9-9.39-17.68-24.21-34.33l-15.85-17.85c0.85-1.71 2.3-4.58 3.93-7.41 3.4-5.51 5.07-7.02 5.75-7.41l2.52-1.21c1.44-0.73 2.83-1.24 4.01-1.63 0.95-0.36 1.78-0.69 2.64-0.97" fill="#cecaa4"/><path d="m3861 2965.6c36.91-24.49 82.65-35.3 128.98-27.67l1.04 0.92c3.15 2.64 5.67 5.18 7.09 6.7l1.3 1.28c-2.01 1.17-4.53 4.83-6.75 8.4-2.64 4.6-4.82 9.23-4.82 9.23s-24.84-3.21-46.23 2.91c-21.49 6.2-39.26 12.64-39.26 12.64l-11.77-3.74c-5.65-1.74-13.32-2.23-19.61-2.28-6.75-0.09-11.97 0.41-11.97 0.41-1.05-0.63 0.31-4.77 2-8.8" fill="#c3bf9c"/><path d="m3989.2 2940.9c2.66 2.23 4.82 4.34 6.24 5.82-1.46 1.6-3.1 3.92-5.09 7.12-1.7 2.96-3.22 5.93-4.12 7.73-6.36-0.63-26.92-2.07-45.36 3.22-18.66 5.37-34.71 10.99-38.56 12.37l-10.89-3.45c-6.21-1.92-14.53-2.37-20.42-2.41-3.76-0.05-7.02 0.08-9.24 0.21 0.27-0.98 0.73-2.31 1.45-4.08 37.16-24.39 81.69-33.93 125.57-26.9l0.42 0.37" fill="#cecaa4"/><path d="m3961.3 3250.4 12.41 15.09s22.22 0.87 49.69-7.67c27.48-8.55 29-14.56 29-14.56s7.24-11.58 11.08-30.43c3.82-18.83 3.93-34.33 3.93-34.33s-8.4-2.61-37.05-12.03-33.19-10.34-33.19-10.34l-58.63 56.99s10.36 22.19 22.76 37.28" fill="#2c2d2e"/><path d="m3784.8 3137.4c-0.52 9.54 2.49 24.98 2.49 24.98s5.61 14.56 14.45 29.58c8.85 15.01 24.49 26.75 24.49 26.75s17.08-14.17 24.46-22.98c7.36-8.81 7.36-8.81 7.36-8.81s-5.34-10.91-12.95-35.52c-7.6-24.61-6.68-45.15-6.68-45.15s-25.4-6.68-36.42-9.84c-8.86-2.54-9.87-3.47-9.92-3.73-0.1 0.32-0.57 1.79-2.75 8.51-2.77 8.61-4.02 26.67-4.53 36.21" fill="#414345"/><path d="m3896.9 3013.6c-1.66 20.57 1.56 34.44 1.6 34.61 0.71-0.06 2.59 0.02 0 0.01h-0.13c-0.27 0.03-0.17 0.11 1.02 0.27 3.7 0.46 76.4 22.5 76.4 22.5s1.94-2.68 24.28-23.68c22.34-21.01 29.15-28.77 29.15-28.77s-7.14-15.61-24.29-34.82l-17.14-19.22s-24.78-3.24-46.23 2.95-39.19 12.61-39.19 12.61-3.79 12.83-5.47 33.54" fill="#161719"/><path d="m4096 3046.8 0.1-0.06c0.78-0.89 7.21-8.07 10.62-14.4 3.57-6.87 4.46-11.07 4.46-11.07s11.01 13.71 15.85 24.36c0.47 0.92 0.82 1.89 1.2 2.78 0.97 2.61 2.7 7.56 4.87 13.52 6.32 19.92 9.22 40.93 8.25 62.39l-4.07 11.95-2.32-1.99c-1.74-1.43-11.54-6.82-16.9-9.71-2.1-1.16-3.58-1.92-3.58-1.92s0.02-13.57-4.93-35.04c-4.86-21.46-13.55-40.81-13.55-40.81" fill="#0b0c0d"/><path d="m3861 2965.6c-1.69 4.03-3.05 8.17-2 8.8 0 0-17.98 12.39-30.69 23.54-11.79 10.4-22.8 29.55-24.13 31.89l-0.17 0.23-0.82-2.47c14.26-25.35 34.22-46.46 57.81-61.99" fill="#1b1b1c"/><path d="m3865.2 3270 0.89-0.67 0.32 0.2c1.12 0.94 3.34 2.33 7.47 4.34 1.55 0.8 3.46 1.7 5.61 2.69 1.07 0.54 2.25 1.02 3.52 1.53l2.36 0.96c2.68 1.16 5.65 2.31 9.13 3.64 27.45 10.46 44.62 9.07 44.62 9.07s2.7 2.89 10.89 4.98l0.78 0.25c-1.03-0.04-2.07-0.09-3.07-0.23h-0.29c-10.38-0.7-20.79-2.47-31.21-5.09-18.52-4.7-35.61-12.08-51.02-21.67" fill="#414345"/><path d="m3990 2937.9c5.06 0.89 10.18 1.89 15.19 3.23 1.7 0.36 3.28 0.78 4.92 1.31-1.38 0.42-2.58 0.89-3.66 1.29-1.29 0.45-2.82 1-4.3 1.76l-1.01 0.44-1.02 0.53-0.69 0.34-1.3-1.28c-2.41-2.32-5.56-5.25-7.09-6.7l-1.04-0.92" fill="#1b1b1c"/><path d="m3801.4 3031c0.56-1.15 1.1-2.22 1.76-3.35l0.43 1.58 0.24 0.74 0.15 0.15s-9.98 20.35-11.74 30.19c-1.74 9.74-0.23 32.4-0.23 32.4l-2.78 8.55c-2.7 8.58-4 26.68-4.51 36.16-0.32 7.46 1.34 18.5 2.18 22.97l-0.61 0.38-0.89 0.39-0.56-2.39c-0.59-2.29-1.1-4.56-1.49-6.88-4.01-19.65-4.65-40.3-1.72-61.03 0.9-6.3 2.18-12.57 3.77-18.93 3.69-14.56 9.1-28.28 16-40.93" fill="#b2b4a1"/><path d="m3788.8 3069.9c-0.23 9.27 0.37 19.87 0.53 22.4l-2.62 8.04c-1.89 6.03-3.11 16.28-3.87 25.36-0.59-11.42-0.07-22.96 1.57-34.53 0.85-5.99 2.07-12.1 3.71-18.65l0.68-2.62" fill="#bdbeab"/><path d="m3826.2 3218.7s-1.44-1.08-3.7-3.01l-1.92-1.68c-5.36-4.78-13.41-12.8-18.87-22.06-8.84-15.02-14.45-29.58-14.45-29.58s-0.15-0.74-0.37-2l-1.44 0.73c1.07 4.17 2.28 8.3 3.63 12.36 0.32 0.93 0.64 1.86 0.96 2.78 4.82 13.7 11.26 26.77 19.16 38.89 11.45 17.57 25.94 33.17 42.95 45.95 0.96 0.71 1.91 1.42 2.88 2.11 3.29 2.38 6.66 4.63 10.13 6.79l0.95-0.69-0.94-0.95s-11.64-7.07-23.45-22.61c-5.38-7.06-9.07-13.29-11.5-17.98l-1.23-2.46c-2.01-4.15-2.79-6.59-2.79-6.59" fill="#d4d4b2"/><path d="m3802.4 3198.1c5.19 7.39 11.55 13.7 16.33 17.98l1.99 1.72c1.4 1.2 2.5 2.07 3.15 2.59 0.41 1.09 1.24 3.21 2.64 6.12l1.26 2.52c2.95 5.69 6.57 11.42 10.78 17.08-10.25-9.66-19.32-20.52-27.08-32.44-3.29-5.03-6.31-10.23-9.07-15.57" fill="#dfdeba"/><path d="m3862.4 2974.2h-0.07 0.07m-0.08 0c-0.06 0.01-0.12 0.01-0.17 0.01 0.05 0 0.11 0 0.17-0.01m-3.34 0.23c-0.03 0.01-0.04 0.01-0.04 0.01s-17.98 12.39-30.69 23.54c-1.75 1.55-3.49 3.29-5.18 5.14 1.7-1.86 3.45-3.6 5.22-5.15 12.51-10.96 30.22-23.22 30.69-23.54" fill="#4e782b"/><path d="m3869.2 2974c-2.65 0-4.99 0.09-6.76 0.18h-0.07-0.01c-0.06 0.01-0.12 0.01-0.17 0.01-1.8 0.1-2.95 0.2-3.17 0.22-0.47 0.32-18.18 12.58-30.69 23.54-1.77 1.55-3.52 3.29-5.22 5.15-9.67 10.59-17.82 24.76-18.95 26.75 2.23-3.07 6.17-7.65 11.54-13.1 4.13-5.8 9.22-12.18 14.43-16.75 11.12-9.74 26.62-20.69 29.84-22.93 1.1-0.08 3.41-0.23 6.37-0.31 1.52-0.93 3.06-1.84 4.61-2.75-0.6 0-1.18-0.01-1.75-0.01" fill="#9c9d86"/><path d="m3866.4 2976.8c-2.96 0.08-5.27 0.23-6.37 0.31-3.22 2.24-18.72 13.19-29.84 22.93-5.21 4.57-10.3 10.95-14.43 16.75 11.32-11.47 29.01-26.79 50.64-39.99" fill="#a4a68e"/><path d="m4010.1 2942.5c-1.38 0.42-2.58 0.89-3.66 1.29-1.29 0.45-2.82 1-4.3 1.76l-1.01 0.44-1.02 0.53-0.69 0.34c-2.01 1.17-4.53 4.83-6.75 8.4 0.87 0.33 1.74 0.65 2.61 0.98 3.23-5.19 4.84-6.64 5.5-7.02l2.52-1.21c1.44-0.73 2.83-1.24 4.01-1.63 0.95-0.36 1.78-0.69 2.64-0.97 13.55 5.84 46.82 20.59 52.65 24.92 8.08 5.85 34.91 26.6 45.76 51.17-0.43 1.45-1.55 4.85-4.01 9.58-1.26 2.34-3.81 6.33-8.81 12.21-0.55-0.33-1.21-0.72-1.97-1.17 0.88 1.53 1.74 3.07 2.58 4.62 0.78-0.89 7.21-8.07 10.62-14.4 3.57-6.87 4.46-11.07 4.46-11.07-10.98-25.83-39.34-47.58-47-53.12-7.54-5.61-54.13-25.65-54.13-25.65" fill="#908f79"/><path d="m4009.9 2945.4c-0.86 0.28-1.69 0.61-2.64 0.97-1.18 0.39-2.57 0.9-4.01 1.63l-2.52 1.21c-0.66 0.38-2.27 1.83-5.5 7.02 1.34 0.5 2.68 1.02 4.02 1.56 38.67 15.98 72.66 46.86 94.27 84.32 0.76 0.45 1.42 0.84 1.97 1.17 5-5.88 7.55-9.87 8.81-12.21 2.46-4.73 3.58-8.13 4.01-9.58-10.85-24.57-37.68-45.32-45.76-51.17-5.83-4.33-39.1-19.08-52.65-24.92" fill="#99977f"/><path d="m3960.6 2935.5c-35.98 0-70.52 10.8-99.58 30.08-1.28 3.05-2.37 6.17-2.37 7.77 0 0.52 0.11 0.87 0.37 1.03 0 0 0.01 0 0.04-0.01 0.22-0.02 1.37-0.12 3.17-0.22 0.05 0 0.11 0 0.17-0.01h0.01 0.07c1.77-0.09 4.11-0.18 6.76-0.18 0.57 0 1.15 0.01 1.75 0.01 1.52-0.88 3.06-1.75 4.62-2.61-1.63-0.07-3.19-0.1-4.6-0.11-0.57-0.01-1.12-0.01-1.67-0.01-3.05 0-5.69 0.11-7.57 0.22 0.27-0.98 0.73-2.31 1.45-4.08 29.19-19.16 62.92-29.15 97.32-29.15 9.39-0.01 18.84 0.74 28.25 2.25l0.42 0.37c2.66 2.23 4.82 4.34 6.24 5.82-1.46 1.6-3.1 3.92-5.09 7.12-0.1 0.18-0.21 0.37-0.31 0.55 0.87 0.28 1.75 0.57 2.63 0.87 2.22-3.57 4.74-7.23 6.75-8.4l-1.3-1.28c-2.41-2.32-5.56-5.25-7.09-6.7l-1.04-0.92c-9.85-1.62-19.68-2.41-29.4-2.41" fill="#908f79"/><path d="m3803.2 3027.6 0.43 1.58 0.24 0.74 0.12 0.12 0.01-0.01-0.8-2.43" fill="#4e782b"/><path d="m3804 3030-0.01 0.01 0.03 0.03-0.02-0.04" fill="#9c9d86"/><path d="m4082.8 3249.6c-0.03 0.01-0.06 0.02-0.1 0.03 0.04-0.01 0.07-0.02 0.1-0.03m-0.37 0.12c-2.36 0.71-4.7 1.23-6.9 1.25 2.2-0.02 4.54-0.54 6.9-1.25m-8.15 1.2c0.08 0.01 0.17 0.01 0.25 0.02-0.08-0.01-0.17-0.01-0.25-0.02m1.12 0.05h0.02-0.02" fill="#babcba"/><path d="m4118.1 3124.6c0.03 1.05 0.06 2.09 0.07 3.14 7.93 4.3 14.04 7.8 15.1 8.68l1.61 1.39c0.36 1.48 1.06 5.36 0.86 11.59-0.63 3.41-1.46 7.1-2.41 10.92-8.54 33.45-26.33 63.44-51.45 86.75-1.85 0.58-4.26 1.21-6.46 1.21-0.3 0-0.6-0.01-0.89-0.03-2.73-0.21-5.87-0.86-8.97-1.6-0.77 0.76-1.55 1.51-2.34 2.24 3.72 0.92 7.63 1.81 11.08 2.07 0.08 0.01 0.17 0.01 0.25 0.02 0.29 0.02 0.58 0.03 0.87 0.03h0.02 0.11c2.2-0.02 4.54-0.54 6.9-1.25 0.09-0.03 0.18-0.06 0.27-0.09 0.04-0.01 0.07-0.02 0.1-0.03 0.15-0.05 0.31-0.1 0.46-0.15 24.97-23.01 43.68-53.22 52.69-88.5 0.97-3.89 1.81-7.63 2.5-11.51 0.02-0.79 0.04-1.55 0.04-2.27 0-7.28-1.19-10.91-1.19-10.91l-2.32-1.99c-1.74-1.43-11.54-6.82-16.9-9.71" fill="#908f79"/><path d="m4118.2 3127.7c0.35 26.13-5.87 52.63-20.52 77.61-9.7 16.61-20.68 30.2-32.09 41.3 3.1 0.74 6.24 1.39 8.97 1.6 0.29 0.02 0.59 0.03 0.89 0.03 2.2 0 4.61-0.63 6.46-1.21 25.12-23.31 42.91-53.3 51.45-86.75 0.95-3.82 1.78-7.51 2.41-10.92 0.2-6.23-0.5-10.11-0.86-11.59l-1.61-1.39c-1.06-0.88-7.17-4.38-15.1-8.68" fill="#99977f"/><path d="m4063.2 3248.8c-0.78 0.73-1.57 1.46-2.36 2.17 0.55 0.15 1.11 0.31 1.67 0.46 3.63 0.9 7.79 1.87 11.57 2.16l0.18 0.01c-28.71 23.61-64.25 37.78-100.88 40.44-11.07 2.07-19.43 2.54-23.39 2.64l0.78 0.25 0.37 0.03c3.28 0.18 6.54 0.27 9.8 0.27 45.88 0 89.41-17.69 122.32-47.83-0.15 0.05-0.31 0.1-0.46 0.15-0.03 0.01-0.06 0.02-0.1 0.03-0.09 0.03-0.18 0.06-0.27 0.09-2.36 0.71-4.7 1.23-6.9 1.25h-0.11-0.02c-0.29 0-0.58-0.01-0.87-0.03-0.08-0.01-0.17-0.01-0.25-0.02-3.45-0.26-7.36-1.15-11.08-2.07" fill="#a2a285"/><path d="m4060.8 3251c-31.09 27.98-64.92 38.85-87.46 43.07 36.63-2.66 72.17-16.83 100.88-40.44l-0.18-0.01c-3.78-0.29-7.94-1.26-11.57-2.16-0.56-0.15-1.12-0.31-1.67-0.46" fill="#aaab8c"/><path d="m3960.5 2938.3c-34.4 0-68.13 9.99-97.32 29.15-0.72 1.77-1.18 3.1-1.45 4.08 1.88-0.11 4.52-0.22 7.57-0.22 0.55 0 1.1 0 1.67 0.01 1.41 0.01 2.97 0.04 4.6 0.11 23.32-12.83 50.42-22.52 78.71-22.52 11.77 0 23.74 1.68 35.73 5.5 0.1-0.18 0.21-0.37 0.31-0.55 1.99-3.2 3.63-5.52 5.09-7.12-1.42-1.48-3.58-3.59-6.24-5.82l-0.42-0.37c-9.41-1.51-18.86-2.26-28.25-2.25" fill="#99977f"/><path d="m4111.2 3021.2s-0.89 4.2-4.46 11.07c-3.41 6.33-9.84 13.51-10.62 14.4 13.07 24.12 21.02 50.78 21.96 77.83 5.36 2.89 15.16 8.28 16.9 9.71l2.32 1.99 4.07-11.95c0.12-2.68 0.18-5.36 0.18-8.03 0.01-18.66-2.9-36.93-8.43-54.36-2.17-5.96-3.9-10.91-4.87-13.52-0.38-0.89-0.73-1.86-1.2-2.78-4.84-10.65-15.85-24.36-15.85-24.36" fill="#0a0b0c"/><path d="m3861 2965.6c-23.59 15.53-43.55 36.64-57.81 61.99l0.8 2.43 0.02 0.04 0.17-0.23c1.13-1.99 9.28-16.16 18.95-26.75 1.69-1.85 3.43-3.59 5.18-5.14 12.71-11.15 30.69-23.54 30.69-23.54-0.26-0.16-0.37-0.51-0.37-1.03 0-1.6 1.09-4.72 2.37-7.77" fill="#161617"/><path d="m3950 3296.7c-0.86 0.01-1.52 0.03-1.95 0.03-0.14 0-0.25-0.01-0.34-0.01 1 0.14 2.04 0.19 3.07 0.23l-0.78-0.25" fill="#303133"/><path d="m3990 2937.9 1.04 0.92c1.53 1.45 4.68 4.38 7.09 6.7l1.3 1.28 0.69-0.34 1.02-0.53 1.01-0.44c1.48-0.76 3.01-1.31 4.3-1.76 1.08-0.4 2.28-0.87 3.66-1.29-1.64-0.53-3.22-0.95-4.92-1.31-5.01-1.34-10.13-2.34-15.19-3.23" fill="#161617"/><path d="m3803.2 3027.6c-0.66 1.13-1.2 2.2-1.76 3.35 0.25 0.25 0.53 0.38 0.82 0.38 0.53 0 1.11-0.42 1.76-1.26l-0.15-0.15-0.24-0.74-0.43-1.58" fill="#84867a"/></g></g></svg>
